<svg width="155" height="128" viewBox="0 0 155 128" fill="none" xmlns="http://www.w3.org/2000/svg">
<path d="M0 128V64V0H154.237L154.223 18.2081C154.212 30.4883 154.16 36.2512 154.065 35.9095C153.985 35.63 153.815 35.1088 153.685 34.7511C153.556 34.3935 153.16 33.7086 152.808 33.2308C152.454 32.7529 151.832 32.055 151.425 31.68C151.019 31.305 150.328 30.7837 149.89 30.5216C149.452 30.2595 148.507 29.8179 146.482 29.0317L139.814 28.9853C134.998 28.952 133.076 28.8912 132.896 28.7681C132.76 28.674 132.493 28.3034 132.305 27.9457C132.116 27.5881 131.797 27.0002 131.597 26.6425C131.396 26.2849 130.774 25.112 130.213 24.0362C129.653 22.9604 128.199 20.1267 126.983 17.7376C125.767 15.3484 124.607 13.0997 124.406 12.7421C124.204 12.3844 123.803 11.6344 123.513 11.0769C123.224 10.5195 122.6 9.47692 122.123 8.76018C121.647 8.04344 120.672 6.86769 119.954 6.1495C119.237 5.42986 118.193 4.54661 117.635 4.18606C117.077 3.82552 116.261 3.36072 115.823 3.15077C115.385 2.94081 114.504 2.57882 113.866 2.3457C113.228 2.11258 112.218 1.84471 111.619 1.74914C110.798 1.62027 102.642 1.58407 78.3507 1.60579C60.6511 1.62172 45.4188 1.68398 44.5026 1.74335C43.2241 1.82588 42.5152 1.95765 41.4585 2.3095C40.7003 2.56145 39.6247 3.00597 39.0666 3.29846C38.5085 3.5895 37.5953 4.1629 37.0372 4.57122C36.4791 4.97955 35.4107 5.95837 34.6613 6.74751C33.9133 7.5352 33.0247 8.60525 32.687 9.12217C32.3492 9.64054 31.8752 10.421 31.6345 10.8597C31.3939 11.2985 30.6778 12.6653 30.0414 13.9005C29.4051 15.1356 28.4121 17.057 27.8337 18.1719C27.2568 19.2869 26.0014 21.7296 25.0461 23.6018C24.0908 25.474 23.1037 27.381 22.8529 27.8414C22.6021 28.3019 22.2977 28.7262 22.1788 28.7826C22.06 28.8391 18.8955 28.9187 15.1483 28.9607C9.09187 29.0273 8.25545 29.065 7.61038 29.2952C7.21174 29.4386 6.46955 29.7629 5.95929 30.0177C5.45048 30.2711 4.61841 30.8214 4.11106 31.2398C3.6037 31.6583 2.8905 32.4069 2.52375 32.905C2.15845 33.4031 1.77576 34.0054 1.67428 34.2443C1.57281 34.4833 1.38292 34.9394 1.25245 35.2579C1.12344 35.5765 0.919044 36.2614 0.800177 36.7783C0.68131 37.2952 0.582738 38.2089 0.579839 38.8054C0.578389 39.4063 0.698706 40.3765 0.852363 40.9774C1.00312 41.5754 1.32058 42.4876 1.55687 43.0045C1.7946 43.5215 2.30051 44.37 2.68175 44.8869C3.063 45.4038 3.46599 45.9265 3.57615 46.0452C3.68632 46.164 3.93855 46.442 4.1357 46.6606C4.33284 46.8793 4.49375 47.1573 4.49375 47.276C4.49375 47.3948 4.17629 48.1289 3.7878 48.905C3.3993 49.6811 2.91514 50.8062 2.71075 51.4027C2.5049 52.0007 2.20774 53.1403 2.04683 53.9367C1.88737 54.733 1.68298 56.2968 1.59311 57.4118C1.47859 58.8235 1.44525 65.17 1.48149 78.3348C1.53222 97.0541 1.53657 97.2409 1.83954 98.3167C2.00769 98.9148 2.30921 99.7618 2.5078 100.199C2.70785 100.636 3.10214 101.386 3.38481 101.864C3.66893 102.342 4.40967 103.254 5.033 103.891C5.65633 104.529 6.49129 105.318 6.88848 105.645C7.28567 105.974 8.08295 106.543 8.66134 106.912C9.23973 107.281 9.81087 107.73 9.93119 107.91C10.053 108.092 10.211 108.843 10.2878 109.611C10.3632 110.368 10.4197 112.55 10.4154 114.462C10.4081 117.26 10.453 118.106 10.6458 118.805C10.7763 119.283 11.0938 120.09 11.3489 120.599C11.6055 121.108 12.1085 121.862 12.4665 122.278C12.8246 122.692 13.5102 123.34 13.9886 123.718C14.467 124.096 15.1193 124.55 15.4382 124.725C15.7571 124.9 16.5732 125.214 17.2502 125.423C17.9272 125.631 19.0694 125.877 19.787 125.967C20.5857 126.068 23.3095 126.125 26.8175 126.116C29.9661 126.108 33.5219 126.034 34.7178 125.954C35.9848 125.869 37.0126 125.73 37.1822 125.622C37.3416 125.521 37.8316 125.355 38.2693 125.253C38.7071 125.152 39.4261 124.87 39.8639 124.626C40.3017 124.383 41.0526 123.892 41.5309 123.534C42.0093 123.178 42.6471 122.619 42.9486 122.294C43.2502 121.968 43.7053 121.376 43.9605 120.977C44.2156 120.579 44.6041 119.732 44.8244 119.095C45.2173 117.954 45.2231 117.883 45.2187 114.462C45.2144 111.37 45.2419 110.962 45.4608 110.769C45.6782 110.578 49.4776 110.552 77.7853 110.552C103.884 110.552 109.9 110.587 110.053 110.74C110.195 110.881 110.261 111.923 110.319 114.939C110.387 118.509 110.427 119.03 110.685 119.674C110.846 120.072 111.148 120.691 111.357 121.05C111.565 121.409 112.051 122.033 112.438 122.437C112.825 122.842 113.63 123.49 114.228 123.878C114.825 124.264 115.723 124.764 116.221 124.987C116.72 125.211 117.665 125.536 118.323 125.711C119.473 126.015 119.827 126.028 127.42 126.067C134.046 126.102 135.437 126.073 136.045 125.895C136.443 125.776 136.932 125.68 137.132 125.679C137.33 125.679 138.049 125.411 138.726 125.085C139.403 124.759 140.415 124.153 140.973 123.739C141.531 123.325 142.223 122.698 142.508 122.344C142.795 121.991 143.229 121.342 143.474 120.905C143.717 120.468 144.029 119.75 144.165 119.312C144.371 118.652 144.429 117.631 144.506 113.35C144.594 108.386 144.609 108.169 144.905 107.775C145.074 107.55 145.432 107.246 145.702 107.099C145.971 106.952 146.811 106.369 147.569 105.803C148.326 105.235 149.232 104.508 149.58 104.187C149.929 103.865 150.522 103.211 150.897 102.733C151.274 102.255 151.831 101.408 152.134 100.851C152.437 100.293 152.811 99.478 152.963 99.0407C153.115 98.6034 153.334 97.7231 153.447 97.086C153.621 96.1202 153.656 92.6436 153.662 76.2353C153.669 58.8105 153.643 56.3591 153.435 54.9502C153.306 54.0742 153.082 52.8695 152.937 52.2715C152.79 51.6749 152.382 50.5006 152.028 49.6652C151.673 48.8297 151.207 47.8842 150.993 47.5656C150.78 47.2471 150.609 46.9213 150.615 46.8416C150.62 46.762 151.032 46.2726 151.529 45.7557C152.028 45.2387 152.721 44.3265 153.07 43.7285C153.419 43.1319 153.82 42.3167 153.96 41.9186C154.205 41.2235 154.217 42.9741 154.237 128H0Z" fill="#FBFCFC"/>
<path d="M41.4585 2.30683C42.4862 1.96366 43.2212 1.82176 44.3577 1.75081C45.1941 1.69723 60.4264 1.63642 78.2057 1.61615C102.639 1.58719 110.797 1.62049 111.619 1.75081C112.218 1.84493 113.228 2.1128 113.866 2.34592C114.504 2.57904 115.385 2.94103 115.823 3.15099C116.261 3.36094 117.077 3.82574 117.635 4.18628C118.193 4.54683 119.237 5.43008 119.954 6.14972C120.672 6.86791 121.647 8.04366 122.123 8.7604C122.6 9.47714 123.224 10.5197 123.513 11.0771C123.803 11.6346 124.204 12.3847 124.406 12.7423C124.607 13.0999 125.767 15.3486 126.983 17.7378C128.199 20.1269 129.653 22.9606 130.213 24.0364C130.774 25.1123 131.396 26.2851 131.597 26.6428C131.797 27.0004 132.116 27.5883 132.305 27.9459C132.493 28.3036 132.76 28.6742 132.896 28.7684C133.076 28.8914 134.998 28.9523 146.482 29.0319L147.788 29.5387C148.507 29.8181 149.452 30.2598 149.89 30.5218C150.328 30.7839 151.018 31.3052 151.422 31.6802C151.826 32.0552 152.422 32.7199 152.745 33.1586C153.069 33.5973 153.431 34.1504 153.551 34.3894C153.672 34.6283 153.875 35.2306 154.004 35.7287C154.168 36.3658 154.237 37.2867 154.24 38.8418C154.241 40.6127 154.188 41.2078 153.973 41.8464C153.825 42.2837 153.418 43.1307 153.07 43.7287C152.721 44.3253 152.028 45.239 151.529 45.7559C151.032 46.2728 150.62 46.7622 150.615 46.8418C150.609 46.9215 150.78 47.2473 150.993 47.5658C151.207 47.8844 151.673 48.8299 152.028 49.6654C152.382 50.5009 152.79 51.6737 152.937 52.2717C153.082 52.8683 153.306 54.0744 153.435 54.9504C153.643 56.3593 153.669 58.8107 153.662 76.2355C153.656 92.6438 153.621 96.1204 153.447 97.0862C153.334 97.7233 153.115 98.6037 152.963 99.0409C152.811 99.4782 152.437 100.293 152.134 100.851C151.831 101.408 151.274 102.255 150.897 102.733C150.522 103.211 149.929 103.866 149.58 104.187C149.232 104.508 148.326 105.235 147.569 105.803C146.811 106.369 145.971 106.953 145.702 107.099C145.432 107.247 145.074 107.551 144.905 107.775C144.609 108.169 144.594 108.386 144.506 113.35C144.429 117.631 144.371 118.652 144.165 119.312C144.029 119.75 143.717 120.468 143.474 120.905C143.229 121.342 142.795 121.991 142.508 122.344C142.223 122.698 141.531 123.325 140.973 123.739C140.415 124.153 139.403 124.76 138.726 125.085C138.049 125.411 137.33 125.679 137.132 125.679C136.932 125.681 136.443 125.776 136.045 125.895C135.437 126.073 134.046 126.102 127.42 126.067C119.827 126.028 119.473 126.015 118.323 125.711C117.665 125.536 116.72 125.211 116.221 124.987C115.723 124.764 114.825 124.264 114.228 123.878C113.63 123.49 112.825 122.843 112.438 122.437C112.051 122.033 111.565 121.409 111.357 121.05C111.148 120.691 110.846 120.073 110.685 119.674C110.427 119.03 110.387 118.509 110.319 114.94C110.261 111.923 110.195 110.881 110.053 110.74C109.9 110.587 103.884 110.552 77.7854 110.552C49.4776 110.552 45.6782 110.578 45.4608 110.769C45.2419 110.962 45.2144 111.37 45.2187 114.462C45.2231 117.883 45.2173 117.954 44.8244 119.095C44.6041 119.732 44.2156 120.579 43.9605 120.978C43.7053 121.376 43.2502 121.968 42.9487 122.294C42.6471 122.62 42.0093 123.178 41.531 123.535C41.0526 123.892 40.3017 124.383 39.8639 124.626C39.4261 124.87 38.7071 125.152 38.2694 125.253C37.8316 125.355 37.3416 125.521 37.1822 125.623C37.0126 125.73 35.9848 125.869 34.7178 125.954C33.5219 126.034 29.9661 126.108 26.8175 126.116C23.3095 126.125 20.5857 126.069 19.787 125.967C19.0695 125.877 17.9272 125.631 17.2502 125.423C16.5732 125.214 15.7571 124.9 15.4382 124.725C15.1193 124.55 14.467 124.097 13.9886 123.719C13.5102 123.341 12.8246 122.692 12.4665 122.278C12.1085 121.862 11.6055 121.108 11.3489 120.6C11.0938 120.09 10.7763 119.283 10.6458 118.806C10.453 118.106 10.4081 117.261 10.4154 114.462C10.4197 112.55 10.3632 110.368 10.2878 109.611C10.211 108.844 10.053 108.092 9.93119 107.91C9.81088 107.73 9.23974 107.281 8.66135 106.912C8.08296 106.543 7.28568 105.974 6.88849 105.645C6.4913 105.318 5.65633 104.529 5.03301 103.892C4.40968 103.255 3.66894 102.342 3.38482 101.864C3.10215 101.387 2.70785 100.637 2.50781 100.199C2.30922 99.762 2.0077 98.915 1.83955 98.317C1.53658 97.2411 1.53223 97.0543 1.4815 78.3351C1.44526 65.1702 1.4786 58.8237 1.59311 57.412C1.68299 56.2971 1.88738 54.7332 2.04684 53.9369C2.20774 53.1405 2.50491 52.0009 2.71075 51.4029C2.91515 50.8064 3.39931 49.6813 3.7878 48.9052C4.1763 48.1291 4.49376 47.395 4.49376 47.2762C4.49376 47.1575 4.33285 46.8795 4.13571 46.6609C3.93856 46.4422 3.68633 46.1642 3.57616 46.0455C3.46599 45.9267 3.06301 45.404 2.68176 44.8871C2.30052 44.3702 1.79461 43.5217 1.55688 43.0047C1.32059 42.4878 1.00313 41.5756 0.852371 40.9776C0.698714 40.3767 0.578397 39.4066 0.579847 38.8056C0.582746 38.2091 0.681319 37.2954 0.800186 36.7785C0.919053 36.2616 1.12345 35.5767 1.25246 35.2581C1.38292 34.9396 1.57282 34.4835 1.67429 34.2446C1.77576 34.0056 2.15846 33.4033 2.52376 32.9052C2.8905 32.4071 3.60371 31.6585 4.11106 31.24C4.61842 30.8216 5.45049 30.2714 5.9593 30.018C6.46956 29.7631 7.21175 29.4388 7.61039 29.2954C8.25546 29.0652 9.09188 29.0275 15.1483 28.9609C18.8955 28.919 22.06 28.8393 22.1788 28.7828C22.2977 28.7264 22.6021 28.3021 22.8529 27.8417C23.1037 27.3812 24.0909 25.4742 25.0461 23.602C26.0014 21.7298 27.2568 19.2871 27.8337 18.1722C28.4121 17.0572 29.4051 15.1358 30.0414 13.9007C30.6778 12.6656 31.3939 11.2987 31.6346 10.8599C31.8752 10.4212 32.3492 9.64076 32.687 9.12239C33.0247 8.60402 33.9133 7.53542 34.6613 6.74773C35.4108 5.95859 36.4791 4.97977 37.0372 4.57144C37.5953 4.16312 38.5085 3.58972 39.0666 3.29868C39.6247 3.00619 40.7003 2.56022 41.4585 2.30683Z" fill="#010202"/>
<path fill-rule="evenodd" clip-rule="evenodd" d="M77.6259 9.72774C94.7354 9.7205 108.986 9.77118 109.589 9.84213C110.429 9.94204 110.975 10.1201 111.981 10.6269C112.699 10.9875 113.579 11.5348 113.938 11.8432C114.298 12.1516 114.85 12.7902 115.166 13.2608C115.482 13.7328 115.997 14.6059 116.308 15.2039C116.62 15.8005 117.594 17.6901 118.471 19.403C119.348 21.1145 120.637 23.6557 121.334 25.0501C122.033 26.443 122.643 27.7143 122.694 27.8736C122.743 28.0329 122.701 28.2776 122.601 28.4181C122.427 28.6613 120.237 28.6729 77.6621 28.6714C48.1179 28.67 32.8072 28.6208 32.6159 28.5252C32.4564 28.4456 32.3231 28.2342 32.3202 28.0546C32.3158 27.8751 32.4173 27.6304 32.5434 27.5116C32.6695 27.3929 32.771 27.2293 32.7681 27.1496C32.7652 27.07 32.8681 26.8094 32.9957 26.5705C33.1247 26.3315 33.8959 24.8329 34.7105 23.2401C35.5238 21.6474 36.2631 20.2139 36.3529 20.0546C36.4428 19.8953 37.0806 18.624 37.7721 17.2311C38.4636 15.8367 39.2927 14.3062 39.616 13.8284C39.9392 13.3505 40.6075 12.5686 41.1018 12.0908C41.5947 11.613 42.3499 11.0454 42.779 10.8296C43.2095 10.6153 43.8213 10.3315 44.1402 10.2012C44.4591 10.0709 45.1766 9.91453 45.7347 9.85226C46.2928 9.79145 60.6438 9.73498 77.6259 9.72774V9.72774ZM25.1215 36.489H129.304L130.355 37.394C130.932 37.8921 133.592 40.481 136.263 43.1496C138.937 45.8182 141.541 48.4897 142.053 49.0863C142.565 49.6843 143.255 50.5965 143.584 51.1134C143.914 51.6304 144.333 52.3804 144.517 52.7786C144.7 53.1768 144.976 53.8935 145.128 54.3714C145.28 54.8492 145.512 55.8584 145.644 56.6157C145.855 57.8465 145.877 59.8099 145.847 75.222C145.824 86.2237 145.757 92.9234 145.658 93.756C145.573 94.4727 145.379 95.4182 145.226 95.8555C145.073 96.2928 144.776 96.9444 144.564 97.3035C144.354 97.6626 143.851 98.3055 143.448 98.7326C143.043 99.1598 142.288 99.8114 141.771 100.179C141.252 100.545 140.502 101.003 140.103 101.194C139.705 101.385 139.019 101.668 138.581 101.823C138.142 101.978 137.425 102.176 136.987 102.264C136.416 102.379 119.667 102.438 77.9158 102.474C26.1652 102.52 19.468 102.5 18.0837 102.303C17.227 102.182 16.0528 101.901 15.4744 101.679C14.896 101.456 13.9393 100.952 13.3464 100.557C12.7086 100.13 11.9533 99.4537 11.4953 98.8962C11.0705 98.3779 10.5356 97.596 10.3066 97.1587C10.0776 96.7214 9.76879 95.9062 9.61948 95.3487C9.3629 94.3858 9.34985 93.4302 9.34985 76.0184C9.34985 58.6791 9.36435 57.6394 9.61948 56.5433C9.76734 55.9062 10.0471 54.897 10.2414 54.299C10.4356 53.7024 10.8284 52.7887 11.114 52.2718C11.401 51.7549 11.9359 50.8745 12.3027 50.3171C12.6709 49.7596 13.7146 48.4564 14.622 47.4211C15.5295 46.3858 17.2864 44.4962 18.5272 43.222C19.7667 41.9478 21.7584 39.912 22.9514 38.6971L25.1215 36.489ZM10.9082 37.0696C11.2068 37.0682 11.6475 37.1826 11.8866 37.3216C12.1273 37.4606 12.3563 37.6734 12.3969 37.7922C12.4375 37.9109 12.323 38.2179 12.1432 38.4742C11.962 38.729 11.6678 39.007 11.488 39.0895C11.3083 39.1721 10.9328 39.2401 10.6545 39.2401C10.3066 39.2401 10.0326 39.1257 9.78473 38.8781C9.58469 38.6798 9.40929 38.3583 9.39334 38.1643C9.3716 37.9138 9.50641 37.7082 9.86446 37.4418C10.1906 37.2 10.553 37.0711 10.9082 37.0696ZM144.126 37.0696C144.504 37.0696 144.994 37.1565 145.213 37.2651C145.432 37.3737 145.661 37.5692 145.721 37.6995C145.78 37.8298 145.829 38.1006 145.829 38.299C145.829 38.4988 145.683 38.7927 145.503 38.9534C145.315 39.1229 144.977 39.2445 144.706 39.243C144.446 39.2416 144.023 39.1504 143.764 39.0418C143.504 38.9317 143.143 38.6885 142.959 38.4988C142.742 38.2729 142.648 38.0311 142.685 37.798C142.717 37.6025 142.9 37.3592 143.091 37.2579C143.281 37.1565 143.748 37.0711 144.126 37.0696ZM132.566 110.35C132.805 110.338 133.441 110.461 133.979 110.622C134.517 110.783 135.12 111.061 135.318 111.24C135.6 111.494 135.713 111.792 135.824 112.579C135.903 113.137 135.968 113.984 135.968 114.462C135.969 114.94 135.898 115.591 135.81 115.91C135.721 116.228 135.469 116.718 135.249 116.996C135.03 117.274 134.499 117.698 133.29 118.371L127.564 118.418C123.964 118.448 121.623 118.409 121.259 118.316C120.94 118.235 120.402 117.969 120.063 117.727C119.724 117.484 119.267 116.976 119.048 116.598C118.661 115.932 118.649 115.846 118.667 113.883C118.681 112.396 118.744 111.74 118.905 111.421C119.077 111.075 119.274 110.949 119.864 110.806C120.382 110.68 122.218 110.619 125.934 110.607C128.863 110.599 131.457 110.541 131.696 110.48C131.935 110.419 132.326 110.36 132.566 110.35ZM28.9919 110.568C33.9684 110.581 35.4194 110.626 35.8731 110.785C36.2123 110.904 36.524 111.136 36.6327 111.349C36.7559 111.593 36.8154 112.419 36.8139 113.883C36.8125 115.787 36.7762 116.126 36.5153 116.634C36.3515 116.952 35.9775 117.395 35.6847 117.618C35.3919 117.843 34.8265 118.115 34.4279 118.225C33.9495 118.357 32.4463 118.454 30.0066 118.51C27.9728 118.557 25.3317 118.542 24.1357 118.477C22.1831 118.37 21.8947 118.321 21.309 117.983C20.9495 117.778 20.4103 117.358 20.1102 117.049C19.8101 116.741 19.455 116.197 19.3231 115.837C19.11 115.263 19.1013 114.966 19.2448 113.303C19.3347 112.268 19.4448 111.307 19.4883 111.168C19.5333 111.029 19.7159 110.874 19.8957 110.825C20.0754 110.774 20.7756 110.693 21.454 110.644C22.1309 110.593 25.523 110.56 28.9919 110.568V110.568Z" fill="#FBFCFC"/>
<path d="M23.4471 50.5415C24.1444 50.3069 25.1388 50.0622 25.6563 49.9985C26.1738 49.9348 49.6573 49.8942 77.8418 49.9087C115.411 49.929 129.318 49.9796 129.956 50.0998C130.435 50.191 131.217 50.3836 131.696 50.5284C132.174 50.6732 133.054 51.0077 133.653 51.2712C134.25 51.5348 135.228 52.0749 135.827 52.473C136.424 52.8712 137.236 53.5272 137.629 53.9297C138.022 54.3322 138.619 55.0852 138.955 55.6021C139.292 56.119 139.732 56.8691 139.932 57.2672C140.132 57.6654 140.427 58.3822 140.586 58.86C140.746 59.3378 140.949 60.1197 141.038 60.5976C141.128 61.0754 141.269 63.2256 141.35 65.3758C141.433 67.5261 141.479 70.7507 141.452 72.5433C141.405 75.7027 141.392 75.8258 141.027 76.5976C140.82 77.0348 140.383 77.753 140.057 78.1903C139.732 78.6276 139.152 79.2155 138.771 79.4935C138.39 79.7715 137.913 80.0843 137.713 80.1885C137.513 80.2913 137.12 80.439 136.842 80.5143C136.558 80.5925 134.388 80.6403 131.913 80.6229C129.482 80.6055 123.904 80.6055 119.519 80.6229C115.134 80.6403 111.317 80.6852 111.039 80.7243C110.601 80.7836 110.408 80.9574 109.64 81.9898C109.15 82.6472 108.367 83.5565 107.901 84.0111C107.434 84.4644 106.693 85.0768 106.255 85.3722C105.818 85.6676 105.001 86.1367 104.443 86.4133C103.885 86.6899 102.939 87.0721 102.341 87.2618C101.743 87.4515 100.537 87.7049 99.6597 87.8251C98.2898 88.0119 95.2225 88.0365 77.8433 87.9988C57.8374 87.9539 57.6069 87.951 56.3167 87.647C55.5992 87.479 54.4903 87.1648 53.8524 86.9505C53.2146 86.7348 52.268 86.3293 51.7505 86.0484C51.233 85.7661 50.4488 85.2723 50.011 84.9494C49.5732 84.6265 48.6991 83.8374 48.0685 83.1945C47.4394 82.553 46.7552 81.774 46.5465 81.4656C46.3392 81.1558 46.0058 80.8358 45.8072 80.7561C45.5839 80.6649 42.2542 80.5824 37.1096 80.5404C31.2634 80.4926 28.2772 80.5244 27.1074 80.6446C26.1912 80.7387 24.1357 80.8256 22.5411 80.8386C19.8463 80.8589 19.5753 80.8358 18.6997 80.5244C18.1808 80.3405 17.3661 79.9033 16.8877 79.5529C16.3514 79.1619 15.7875 78.5697 15.4164 78.0108C15.0859 77.5127 14.6771 76.6975 14.5104 76.1994C14.3147 75.6187 14.148 74.5559 14.0436 73.231C13.9407 71.9366 13.9117 69.4663 13.9639 66.6066C14.0335 62.8318 14.0972 61.8211 14.3335 60.7424C14.4901 60.0256 14.796 58.9498 15.0134 58.3532C15.2294 57.7552 15.7512 56.7127 16.1716 56.0365C16.592 55.3588 17.3501 54.3988 17.8546 53.8993C18.3591 53.4012 19.0984 52.7612 19.497 52.4759C19.8956 52.1907 20.6625 51.7346 21.2003 51.4624C21.7381 51.1916 22.7499 50.776 23.4471 50.5415Z" fill="#010202"/>
<path d="M121.694 88.5766C122.259 88.2609 122.417 88.2522 128.289 88.1682C131.599 88.1205 134.991 88.0973 135.827 88.1161C136.967 88.1422 137.513 88.2233 138.002 88.4361C138.361 88.5925 138.931 88.9907 139.27 89.3194C139.609 89.6495 140.001 90.1635 140.14 90.4618C140.321 90.8499 140.389 91.3349 140.377 92.1632C140.366 93.0059 140.282 93.4794 140.072 93.9007C139.912 94.2193 139.495 94.7261 139.145 95.0272C138.796 95.3284 138.28 95.6861 138.002 95.8236C137.541 96.0495 136.797 96.0727 122.418 96.0727L121.636 95.7107C121.205 95.5109 120.634 95.104 120.367 94.8057C120.1 94.5074 119.779 94.018 119.651 93.7197C119.487 93.3331 119.437 92.8423 119.47 92.0097C119.512 91.0149 119.581 90.7471 119.937 90.1997C120.167 89.8464 120.525 89.4091 120.734 89.2282C120.943 89.0472 121.375 88.7547 121.694 88.5766Z" fill="#010202"/>
<path d="M15.9774 89.3034C16.2789 89.0052 16.8022 88.6316 17.1414 88.4738C17.7299 88.2001 18.0938 88.1871 25.1504 88.1842C31.8331 88.1798 32.6129 88.2044 33.2682 88.4347C33.7306 88.5968 34.2582 88.9501 34.725 89.412C35.3295 90.0086 35.5034 90.3011 35.7151 91.0772C35.889 91.7201 35.9398 92.2254 35.8716 92.67C35.818 93.0291 35.66 93.5822 35.5208 93.9007C35.3831 94.2193 34.9671 94.7565 34.5945 95.0953C34.2234 95.4341 33.6755 95.812 33.3769 95.9351C32.9058 96.1291 31.8403 96.1523 25.3679 96.1161C18.1851 96.0741 17.8778 96.0611 17.2501 95.7744C16.8906 95.6108 16.3369 95.2459 16.018 94.9635C15.6933 94.6768 15.2859 94.1063 15.0946 93.6691C14.8032 93.0102 14.7612 92.7279 14.8235 91.8736C14.8655 91.3089 15.0148 90.6356 15.1627 90.3532C15.3091 90.0752 15.6759 89.6017 15.9774 89.3034Z" fill="#010202"/>
<path d="M25.8029 58.5151C26.5871 58.1415 26.6611 58.1343 30.5141 58.0634C32.6667 58.0243 55.6602 57.9924 81.6124 57.9953C127.405 57.9982 128.816 58.0069 129.449 58.2704C129.809 58.4196 130.33 58.7048 130.609 58.9046C130.887 59.1044 131.305 59.4693 131.536 59.7155C131.767 59.9616 132.132 60.4235 132.348 60.7421C132.564 61.0606 132.811 61.5486 132.895 61.8281C132.98 62.1075 133.095 62.6606 133.148 63.0588C133.204 63.457 133.241 65.6724 133.235 67.9819C133.227 70.7548 133.17 72.2302 133.067 72.3258C132.966 72.4214 128.811 72.4532 120.998 72.4199C114.314 72.3924 108.971 72.3128 108.829 72.2389C108.663 72.1549 108.546 71.8682 108.491 71.4208C108.444 71.0429 108.273 70.3088 108.111 69.7919C107.947 69.2749 107.676 68.5901 107.508 68.2715C107.338 67.9529 106.932 67.3332 106.603 66.8959C106.276 66.4586 105.606 65.7245 105.116 65.267C104.586 64.7718 103.801 64.2317 103.175 63.9334C102.597 63.6568 101.569 63.2833 99.6598 62.7707L53.2728 62.7779L52.258 63.0907C51.6999 63.263 50.8244 63.6843 50.3112 64.0275C49.7981 64.3707 49.0269 65.0425 48.5978 65.5204C48.1687 65.9982 47.628 66.7801 47.3961 67.2579C47.1627 67.7358 46.8713 68.5177 46.7481 68.9955C46.6249 69.4733 46.4756 70.3754 46.4191 71.0009C46.3611 71.625 46.2495 72.1926 46.1697 72.2621C46.09 72.3301 40.6758 72.391 34.1381 72.3953C24.2286 72.4025 22.2267 72.3721 22.1064 72.2056C22.0166 72.084 21.9644 70.3725 21.9702 67.7502C21.9774 63.7379 21.9977 63.431 22.3108 62.4072C22.5239 61.7079 22.8573 61.0418 23.2444 60.5365C23.5749 60.105 24.1069 59.5591 24.4258 59.3231C24.7447 59.0885 25.3637 58.7251 25.8029 58.5151Z" fill="#FBFCFC"/>
<path d="M55.5356 70.733L75.7864 70.6548C86.9237 70.6114 96.4272 70.6013 96.9056 70.6302C97.384 70.6606 98.0363 70.7605 98.3552 70.8518C98.6741 70.9444 99.18 71.2644 99.4786 71.5642C99.7773 71.8639 100.177 72.4503 100.366 72.8688C100.556 73.2872 100.882 74.1662 101.091 74.8235C101.34 75.6054 101.472 76.3439 101.472 77.9005L100.783 78.4927C100.405 78.8185 99.8338 79.2051 99.5149 79.3513C99.196 79.4976 98.6422 79.6843 98.2827 79.7683C97.8449 79.8711 91.1898 79.9218 78.0246 79.9247C58.7479 79.9276 58.4043 79.9233 57.5128 79.6351C56.8678 79.4266 56.3618 79.1254 55.753 78.5853C55.2848 78.1683 54.7499 77.5674 54.5672 77.2489C54.3831 76.9303 54.1556 76.2136 54.0599 75.6561C53.9657 75.0986 53.9265 74.2834 53.9744 73.8462C54.0222 73.4089 54.1773 72.7356 54.3194 72.3533C54.4614 71.9696 54.7934 71.4483 55.5356 70.733Z" fill="#FBFCFC"/>
</svg>
