<svg width="155" height="126" viewBox="0 0 155 126" fill="none" xmlns="http://www.w3.org/2000/svg">
<path d="M41.4585 1.30683C42.4862 0.963659 43.2212 0.821759 44.3577 0.750809C45.1941 0.697234 60.4264 0.63642 78.2057 0.616148C102.639 0.587189 110.797 0.620492 111.619 0.750809C112.218 0.844926 113.228 1.1128 113.866 1.34592C114.504 1.57904 115.385 1.94103 115.823 2.15099C116.261 2.36094 117.077 2.82574 117.635 3.18628C118.193 3.54683 119.237 4.43008 119.954 5.14972C120.672 5.86791 121.647 7.04366 122.123 7.7604C122.6 8.47714 123.224 9.51968 123.513 10.0771C123.803 10.6346 124.204 11.3847 124.406 11.7423C124.607 12.0999 125.767 14.3486 126.983 16.7378C128.199 19.1269 129.653 21.9606 130.213 23.0364C130.774 24.1123 131.396 25.2851 131.597 25.6428C131.797 26.0004 132.116 26.5883 132.305 26.9459C132.493 27.3036 132.76 27.6742 132.896 27.7684C133.076 27.8914 134.998 27.9523 146.482 28.0319L147.788 28.5387C148.507 28.8181 149.452 29.2598 149.89 29.5218C150.328 29.7839 151.018 30.3052 151.422 30.6802C151.826 31.0552 152.422 31.7199 152.745 32.1586C153.069 32.5973 153.431 33.1504 153.551 33.3894C153.672 33.6283 153.875 34.2306 154.004 34.7287C154.168 35.3658 154.237 36.2867 154.24 37.8418C154.241 39.6127 154.188 40.2078 153.973 40.8464C153.825 41.2837 153.418 42.1307 153.07 42.7287C152.721 43.3253 152.028 44.239 151.529 44.7559C151.032 45.2728 150.62 45.7622 150.615 45.8418C150.609 45.9215 150.78 46.2473 150.993 46.5658C151.207 46.8844 151.673 47.8299 152.028 48.6654C152.382 49.5009 152.79 50.6737 152.937 51.2717C153.082 51.8683 153.306 53.0744 153.435 53.9504C153.643 55.3593 153.669 57.8107 153.662 75.2355C153.656 91.6438 153.621 95.1204 153.447 96.0862C153.334 96.7233 153.115 97.6037 152.963 98.0409C152.811 98.4782 152.437 99.2934 152.134 99.8509C151.831 100.408 151.274 101.255 150.897 101.733C150.522 102.211 149.929 102.866 149.58 103.187C149.232 103.508 148.326 104.235 147.569 104.803C146.811 105.369 145.971 105.953 145.702 106.099C145.432 106.247 145.074 106.551 144.905 106.775C144.609 107.169 144.594 107.386 144.506 112.35C144.429 116.631 144.371 117.652 144.165 118.312C144.029 118.75 143.717 119.468 143.474 119.905C143.229 120.342 142.795 120.991 142.508 121.344C142.223 121.698 141.531 122.325 140.973 122.739C140.415 123.153 139.403 123.76 138.726 124.085C138.049 124.411 137.33 124.679 137.132 124.679C136.932 124.681 136.443 124.776 136.045 124.895C135.437 125.073 134.046 125.102 127.42 125.067C119.827 125.028 119.473 125.015 118.323 124.711C117.665 124.536 116.72 124.211 116.221 123.987C115.723 123.764 114.825 123.264 114.228 122.878C113.63 122.49 112.825 121.843 112.438 121.437C112.051 121.033 111.565 120.409 111.357 120.05C111.148 119.691 110.846 119.073 110.685 118.674C110.427 118.03 110.387 117.509 110.319 113.94C110.261 110.923 110.195 109.881 110.053 109.74C109.9 109.587 103.884 109.552 77.7854 109.552C49.4776 109.552 45.6782 109.578 45.4608 109.769C45.2419 109.962 45.2144 110.37 45.2187 113.462C45.2231 116.883 45.2173 116.954 44.8244 118.095C44.6041 118.732 44.2156 119.579 43.9605 119.978C43.7053 120.376 43.2502 120.968 42.9487 121.294C42.6471 121.62 42.0093 122.178 41.531 122.535C41.0526 122.892 40.3017 123.383 39.8639 123.626C39.4261 123.87 38.7071 124.152 38.2694 124.253C37.8316 124.355 37.3416 124.521 37.1822 124.623C37.0126 124.73 35.9848 124.869 34.7178 124.954C33.5219 125.034 29.9661 125.108 26.8175 125.116C23.3095 125.125 20.5857 125.069 19.787 124.967C19.0695 124.877 17.9272 124.631 17.2502 124.423C16.5732 124.214 15.7571 123.9 15.4382 123.725C15.1193 123.55 14.467 123.097 13.9886 122.719C13.5102 122.341 12.8246 121.692 12.4665 121.278C12.1085 120.862 11.6055 120.108 11.3489 119.6C11.0938 119.09 10.7763 118.283 10.6458 117.806C10.453 117.106 10.4081 116.261 10.4154 113.462C10.4197 111.55 10.3632 109.368 10.2878 108.611C10.211 107.844 10.053 107.092 9.93119 106.91C9.81088 106.73 9.23974 106.281 8.66135 105.912C8.08296 105.543 7.28568 104.974 6.88849 104.645C6.4913 104.318 5.65633 103.529 5.03301 102.892C4.40968 102.255 3.66894 101.342 3.38482 100.864C3.10215 100.387 2.70785 99.6366 2.50781 99.1993C2.30922 98.762 2.0077 97.915 1.83955 97.317C1.53658 96.2411 1.53223 96.0543 1.4815 77.3351C1.44526 64.1702 1.4786 57.8237 1.59311 56.412C1.68299 55.2971 1.88738 53.7332 2.04684 52.9369C2.20774 52.1405 2.50491 51.0009 2.71075 50.4029C2.91515 49.8064 3.39931 48.6813 3.7878 47.9052C4.1763 47.1291 4.49376 46.395 4.49376 46.2762C4.49376 46.1575 4.33285 45.8795 4.13571 45.6609C3.93856 45.4422 3.68633 45.1642 3.57616 45.0455C3.46599 44.9267 3.06301 44.404 2.68176 43.8871C2.30052 43.3702 1.79461 42.5217 1.55688 42.0047C1.32059 41.4878 1.00313 40.5756 0.852371 39.9776C0.698714 39.3767 0.578397 38.4066 0.579847 37.8056C0.582746 37.2091 0.681319 36.2954 0.800186 35.7785C0.919053 35.2616 1.12345 34.5767 1.25246 34.2581C1.38292 33.9396 1.57282 33.4835 1.67429 33.2446C1.77576 33.0056 2.15846 32.4033 2.52376 31.9052C2.8905 31.4071 3.60371 30.6585 4.11106 30.24C4.61842 29.8216 5.45049 29.2714 5.9593 29.018C6.46956 28.7631 7.21175 28.4388 7.61039 28.2954C8.25546 28.0652 9.09188 28.0275 15.1483 27.9609C18.8955 27.919 22.06 27.8393 22.1788 27.7828C22.2977 27.7264 22.6021 27.3021 22.8529 26.8417C23.1037 26.3812 24.0909 24.4742 25.0461 22.602C26.0014 20.7298 27.2568 18.2871 27.8337 17.1722C28.4121 16.0572 29.4051 14.1358 30.0414 12.9007C30.6778 11.6656 31.3939 10.2987 31.6346 9.85995C31.8752 9.42122 32.3492 8.64076 32.687 8.12239C33.0247 7.60402 33.9133 6.53542 34.6613 5.74773C35.4108 4.95859 36.4791 3.97977 37.0372 3.57144C37.5953 3.16312 38.5085 2.58972 39.0666 2.29868C39.6247 2.00619 40.7003 1.56022 41.4585 1.30683Z" fill="#315288"/>
<path fill-rule="evenodd" clip-rule="evenodd" d="M77.6259 8.72774C94.7354 8.7205 108.986 8.77118 109.589 8.84213C110.429 8.94204 110.975 9.12014 111.981 9.62692C112.699 9.98747 113.579 10.5348 113.938 10.8432C114.298 11.1516 114.85 11.7902 115.166 12.2608C115.482 12.7328 115.997 13.6059 116.308 14.2039C116.62 14.8005 117.594 16.6901 118.471 18.403C119.348 20.1145 120.637 22.6557 121.334 24.0501C122.033 25.443 122.643 26.7143 122.694 26.8736C122.743 27.0329 122.701 27.2776 122.601 27.4181C122.427 27.6613 120.237 27.6729 77.6621 27.6714C48.1179 27.67 32.8072 27.6208 32.6159 27.5252C32.4564 27.4456 32.3231 27.2342 32.3202 27.0546C32.3158 26.8751 32.4173 26.6304 32.5434 26.5116C32.6695 26.3929 32.771 26.2293 32.7681 26.1496C32.7652 26.07 32.8681 25.8094 32.9957 25.5705C33.1247 25.3315 33.8959 23.8329 34.7105 22.2401C35.5238 20.6474 36.2631 19.2139 36.3529 19.0546C36.4428 18.8953 37.0806 17.624 37.7721 16.2311C38.4636 14.8367 39.2927 13.3062 39.616 12.8284C39.9392 12.3505 40.6075 11.5686 41.1018 11.0908C41.5947 10.613 42.3499 10.0454 42.779 9.82964C43.2095 9.61534 43.8213 9.33154 44.1402 9.20122C44.4591 9.07091 45.1766 8.91453 45.7347 8.85226C46.2928 8.79145 60.6438 8.73498 77.6259 8.72774ZM25.1215 35.489H129.304L130.355 36.394C130.932 36.8921 133.592 39.481 136.263 42.1496C138.937 44.8182 141.541 47.4897 142.053 48.0863C142.565 48.6843 143.255 49.5965 143.584 50.1134C143.914 50.6304 144.333 51.3804 144.517 51.7786C144.7 52.1768 144.976 52.8935 145.128 53.3714C145.28 53.8492 145.512 54.8584 145.644 55.6157C145.855 56.8465 145.877 58.8099 145.847 74.222C145.824 85.2237 145.757 91.9234 145.658 92.756C145.573 93.4727 145.379 94.4182 145.226 94.8555C145.073 95.2928 144.776 95.9444 144.564 96.3035C144.354 96.6626 143.851 97.3055 143.448 97.7326C143.043 98.1598 142.288 98.8114 141.771 99.1791C141.252 99.5455 140.502 100.003 140.103 100.194C139.705 100.385 139.019 100.668 138.581 100.823C138.142 100.978 137.425 101.176 136.987 101.264C136.416 101.379 119.667 101.438 77.9158 101.474C26.1652 101.52 19.468 101.5 18.0837 101.303C17.227 101.182 16.0528 100.901 15.4744 100.679C14.896 100.456 13.9393 99.9523 13.3464 99.5571C12.7086 99.1299 11.9533 98.4537 11.4953 97.8962C11.0705 97.3779 10.5356 96.596 10.3066 96.1587C10.0776 95.7214 9.76879 94.9062 9.61948 94.3487C9.3629 93.3858 9.34985 92.4302 9.34985 75.0184C9.34985 57.6791 9.36435 56.6394 9.61948 55.5433C9.76734 54.9062 10.0471 53.897 10.2414 53.299C10.4356 52.7024 10.8284 51.7887 11.114 51.2718C11.401 50.7549 11.9359 49.8745 12.3027 49.3171C12.6709 48.7596 13.7146 47.4564 14.622 46.4211C15.5295 45.3858 17.2864 43.4962 18.5272 42.222C19.7667 40.9478 21.7584 38.912 22.9514 37.6971L25.1215 35.489ZM10.9082 36.0696C11.2068 36.0682 11.6475 36.1826 11.8866 36.3216C12.1273 36.4606 12.3563 36.6734 12.3969 36.7922C12.4375 36.9109 12.323 37.2179 12.1432 37.4742C11.962 37.729 11.6678 38.007 11.488 38.0895C11.3083 38.1721 10.9328 38.2401 10.6545 38.2401C10.3066 38.2401 10.0326 38.1257 9.78473 37.8781C9.58469 37.6798 9.40929 37.3583 9.39334 37.1643C9.3716 36.9138 9.50641 36.7082 9.86446 36.4418C10.1906 36.2 10.553 36.0711 10.9082 36.0696ZM144.126 36.0696C144.504 36.0696 144.994 36.1565 145.213 36.2651C145.432 36.3737 145.661 36.5692 145.721 36.6995C145.78 36.8298 145.829 37.1006 145.829 37.299C145.829 37.4988 145.683 37.7927 145.503 37.9534C145.315 38.1229 144.977 38.2445 144.706 38.243C144.446 38.2416 144.023 38.1504 143.764 38.0418C143.504 37.9317 143.143 37.6885 142.959 37.4988C142.742 37.2729 142.648 37.0311 142.685 36.798C142.717 36.6025 142.9 36.3592 143.091 36.2579C143.281 36.1565 143.748 36.0711 144.126 36.0696ZM132.566 109.35C132.805 109.338 133.441 109.461 133.979 109.622C134.517 109.783 135.12 110.061 135.318 110.24C135.6 110.494 135.713 110.792 135.824 111.579C135.903 112.137 135.968 112.984 135.968 113.462C135.969 113.94 135.898 114.591 135.81 114.91C135.721 115.228 135.469 115.718 135.249 115.996C135.03 116.274 134.499 116.698 133.29 117.371L127.564 117.418C123.964 117.448 121.623 117.409 121.259 117.316C120.94 117.235 120.402 116.969 120.063 116.727C119.724 116.484 119.267 115.976 119.048 115.598C118.661 114.932 118.649 114.846 118.667 112.883C118.681 111.396 118.744 110.74 118.905 110.421C119.077 110.075 119.274 109.949 119.864 109.806C120.382 109.68 122.218 109.619 125.934 109.607C128.863 109.599 131.457 109.541 131.696 109.48C131.935 109.419 132.326 109.36 132.566 109.35ZM28.9919 109.568C33.9684 109.581 35.4194 109.626 35.8731 109.785C36.2123 109.904 36.524 110.136 36.6327 110.349C36.7559 110.593 36.8154 111.419 36.8139 112.883C36.8125 114.787 36.7762 115.126 36.5153 115.634C36.3515 115.952 35.9775 116.395 35.6847 116.618C35.3919 116.843 34.8265 117.115 34.4279 117.225C33.9495 117.357 32.4463 117.454 30.0066 117.51C27.9728 117.557 25.3317 117.542 24.1357 117.477C22.1831 117.37 21.8947 117.321 21.309 116.983C20.9495 116.778 20.4103 116.358 20.1102 116.049C19.8101 115.741 19.455 115.197 19.3231 114.837C19.11 114.263 19.1013 113.966 19.2448 112.303C19.3347 111.268 19.4448 110.307 19.4883 110.168C19.5333 110.029 19.7159 109.874 19.8957 109.825C20.0754 109.774 20.7756 109.693 21.454 109.644C22.1309 109.593 25.523 109.56 28.9919 109.568Z" fill="#FCFDFD"/>
<path d="M23.4471 49.5415C24.1444 49.3069 25.1388 49.0622 25.6563 48.9985C26.1738 48.9348 49.6573 48.8942 77.8418 48.9087C115.411 48.929 129.318 48.9796 129.956 49.0998C130.435 49.191 131.217 49.3836 131.696 49.5284C132.174 49.6732 133.054 50.0077 133.653 50.2712C134.25 50.5348 135.228 51.0749 135.827 51.473C136.424 51.8712 137.236 52.5272 137.629 52.9297C138.022 53.3322 138.619 54.0852 138.955 54.6021C139.292 55.119 139.732 55.8691 139.932 56.2672C140.132 56.6654 140.427 57.3822 140.586 57.86C140.746 58.3378 140.949 59.1197 141.038 59.5976C141.128 60.0754 141.269 62.2256 141.35 64.3758C141.433 66.5261 141.479 69.7507 141.452 71.5433C141.405 74.7027 141.392 74.8258 141.027 75.5976C140.82 76.0348 140.383 76.753 140.057 77.1903C139.732 77.6276 139.152 78.2155 138.771 78.4935C138.39 78.7715 137.913 79.0843 137.713 79.1885C137.513 79.2913 137.12 79.439 136.842 79.5143C136.558 79.5925 134.388 79.6403 131.913 79.6229C129.482 79.6055 123.904 79.6055 119.519 79.6229C115.134 79.6403 111.317 79.6852 111.039 79.7243C110.601 79.7836 110.408 79.9574 109.64 80.9898C109.15 81.6472 108.367 82.5565 107.901 83.0111C107.434 83.4644 106.693 84.0768 106.255 84.3722C105.818 84.6676 105.001 85.1367 104.443 85.4133C103.885 85.6899 102.939 86.0721 102.341 86.2618C101.743 86.4515 100.537 86.7049 99.6597 86.8251C98.2898 87.0119 95.2225 87.0365 77.8433 86.9988C57.8374 86.9539 57.6069 86.951 56.3167 86.647C55.5992 86.479 54.4903 86.1648 53.8524 85.9505C53.2146 85.7348 52.268 85.3293 51.7505 85.0484C51.233 84.7661 50.4488 84.2723 50.011 83.9494C49.5732 83.6265 48.6991 82.8374 48.0685 82.1945C47.4394 81.553 46.7552 80.774 46.5465 80.4656C46.3392 80.1558 46.0058 79.8358 45.8072 79.7561C45.5839 79.6649 42.2542 79.5824 37.1096 79.5404C31.2634 79.4926 28.2772 79.5244 27.1074 79.6446C26.1912 79.7387 24.1357 79.8256 22.5411 79.8386C19.8463 79.8589 19.5753 79.8358 18.6997 79.5244C18.1808 79.3405 17.3661 78.9033 16.8877 78.5529C16.3514 78.1619 15.7875 77.5697 15.4164 77.0108C15.0859 76.5127 14.6771 75.6975 14.5104 75.1994C14.3147 74.6187 14.148 73.5559 14.0436 72.231C13.9407 70.9366 13.9117 68.4663 13.9639 65.6066C14.0335 61.8318 14.0972 60.8211 14.3335 59.7424C14.4901 59.0256 14.796 57.9498 15.0134 57.3532C15.2294 56.7552 15.7512 55.7127 16.1716 55.0365C16.592 54.3588 17.3501 53.3988 17.8546 52.8993C18.3591 52.4012 19.0984 51.7612 19.497 51.4759C19.8956 51.1907 20.6625 50.7346 21.2003 50.4624C21.7381 50.1916 22.7499 49.776 23.4471 49.5415Z" fill="#315288"/>
<path d="M121.694 87.5766C122.259 87.2609 122.417 87.2522 128.289 87.1682C131.599 87.1205 134.991 87.0973 135.827 87.1161C136.967 87.1422 137.513 87.2233 138.002 87.4361C138.361 87.5925 138.931 87.9907 139.27 88.3194C139.609 88.6495 140.001 89.1635 140.14 89.4618C140.321 89.8499 140.389 90.3349 140.377 91.1632C140.366 92.0059 140.282 92.4794 140.072 92.9007C139.912 93.2193 139.495 93.7261 139.145 94.0272C138.796 94.3284 138.28 94.6861 138.002 94.8236C137.541 95.0495 136.797 95.0727 122.418 95.0727L121.636 94.7107C121.205 94.5109 120.634 94.104 120.367 93.8057C120.1 93.5074 119.779 93.018 119.651 92.7197C119.487 92.3331 119.437 91.8423 119.47 91.0097C119.512 90.0149 119.581 89.7471 119.937 89.1997C120.167 88.8464 120.525 88.4091 120.734 88.2282C120.943 88.0472 121.375 87.7547 121.694 87.5766Z" fill="#315288"/>
<path d="M15.9774 88.3034C16.2789 88.0052 16.8022 87.6316 17.1414 87.4738C17.7299 87.2001 18.0938 87.1871 25.1504 87.1842C31.8331 87.1798 32.6129 87.2044 33.2682 87.4347C33.7306 87.5968 34.2582 87.9501 34.725 88.412C35.3295 89.0086 35.5034 89.3011 35.7151 90.0772C35.889 90.7201 35.9398 91.2254 35.8716 91.67C35.818 92.0291 35.66 92.5822 35.5208 92.9007C35.3831 93.2193 34.9671 93.7565 34.5945 94.0953C34.2234 94.4341 33.6755 94.812 33.3769 94.9351C32.9058 95.1291 31.8403 95.1523 25.3679 95.1161C18.1851 95.0741 17.8778 95.0611 17.2501 94.7744C16.8906 94.6108 16.3369 94.2459 16.018 93.9635C15.6933 93.6768 15.2859 93.1063 15.0946 92.6691C14.8032 92.0102 14.7612 91.7279 14.8235 90.8736C14.8655 90.3089 15.0148 89.6356 15.1627 89.3532C15.3091 89.0752 15.6759 88.6017 15.9774 88.3034Z" fill="#315288"/>
<path d="M25.8029 57.5151C26.5871 57.1415 26.6611 57.1343 30.5141 57.0634C32.6667 57.0243 55.6602 56.9924 81.6124 56.9953C127.405 56.9982 128.816 57.0069 129.449 57.2704C129.809 57.4196 130.33 57.7048 130.609 57.9046C130.887 58.1044 131.305 58.4693 131.536 58.7155C131.767 58.9616 132.132 59.4235 132.348 59.7421C132.564 60.0606 132.811 60.5486 132.895 60.8281C132.98 61.1075 133.095 61.6606 133.148 62.0588C133.204 62.457 133.241 64.6724 133.235 66.9819C133.227 69.7548 133.17 71.2302 133.067 71.3258C132.966 71.4214 128.811 71.4532 120.998 71.4199C114.314 71.3924 108.971 71.3128 108.829 71.2389C108.663 71.1549 108.546 70.8682 108.491 70.4208C108.444 70.0429 108.273 69.3088 108.111 68.7919C107.947 68.2749 107.676 67.5901 107.508 67.2715C107.338 66.9529 106.932 66.3332 106.603 65.8959C106.276 65.4586 105.606 64.7245 105.116 64.267C104.586 63.7718 103.801 63.2317 103.175 62.9334C102.597 62.6568 101.569 62.2833 99.6598 61.7707L53.2728 61.7779L52.258 62.0907C51.6999 62.263 50.8244 62.6843 50.3112 63.0275C49.7981 63.3707 49.0269 64.0425 48.5978 64.5204C48.1687 64.9982 47.628 65.7801 47.3961 66.2579C47.1627 66.7358 46.8713 67.5177 46.7481 67.9955C46.6249 68.4733 46.4756 69.3754 46.4191 70.0009C46.3611 70.625 46.2495 71.1926 46.1697 71.2621C46.09 71.3301 40.6758 71.391 34.1381 71.3953C24.2286 71.4025 22.2267 71.3721 22.1064 71.2056C22.0166 71.084 21.9644 69.3725 21.9702 66.7502C21.9774 62.7379 21.9977 62.431 22.3108 61.4072C22.5239 60.7079 22.8573 60.0418 23.2444 59.5365C23.5749 59.105 24.1069 58.5591 24.4258 58.3231C24.7447 58.0885 25.3637 57.7251 25.8029 57.5151Z" fill="#FCFDFD"/>
<path d="M55.5356 69.733L75.7864 69.6548C86.9237 69.6114 96.4272 69.6013 96.9056 69.6302C97.384 69.6606 98.0363 69.7605 98.3552 69.8518C98.6741 69.9444 99.18 70.2644 99.4786 70.5642C99.7773 70.8639 100.177 71.4503 100.366 71.8688C100.556 72.2872 100.882 73.1662 101.091 73.8235C101.34 74.6054 101.472 75.3439 101.472 76.9005L100.783 77.4927C100.405 77.8185 99.8338 78.2051 99.5149 78.3513C99.196 78.4976 98.6422 78.6843 98.2827 78.7683C97.8449 78.8711 91.1898 78.9218 78.0246 78.9247C58.7479 78.9276 58.4043 78.9233 57.5128 78.6351C56.8678 78.4266 56.3618 78.1254 55.753 77.5853C55.2848 77.1683 54.7499 76.5674 54.5672 76.2489C54.3831 75.9303 54.1556 75.2136 54.0599 74.6561C53.9657 74.0986 53.9265 73.2834 53.9744 72.8462C54.0222 72.4089 54.1773 71.7356 54.3194 71.3533C54.4614 70.9696 54.7934 70.4483 55.5356 69.733Z" fill="#FCFDFD"/>
</svg>
