<svg width="106" height="124" viewBox="0 0 106 124" fill="none" xmlns="http://www.w3.org/2000/svg">
<path d="M36.542 1.12872C37.3777 1.01433 38.8449 0.866636 39.8009 0.801478C40.7569 0.737767 42.0604 0.704464 42.6977 0.72908C43.335 0.753695 44.7038 0.804374 45.7394 0.842021C46.775 0.879668 48.3075 1.01143 49.1432 1.13451C49.979 1.25903 51.6084 1.59496 52.7643 1.88166C53.9201 2.16836 55.6148 2.65922 56.5302 2.97198C57.4456 3.28474 59.3691 4.12021 60.803 4.82682C62.2369 5.53487 64.2893 6.69469 65.3655 7.40419C66.4417 8.11514 67.9075 9.15189 68.6245 9.70935C69.3414 10.2668 70.6392 11.4006 71.5083 12.2303C72.3788 13.0585 73.7664 14.5195 74.5934 15.4751C75.4205 16.4308 76.7038 18.1249 77.4439 19.2398C78.1841 20.3548 79.0517 21.7231 79.3718 22.2806C79.6919 22.838 80.2495 23.9139 80.6116 24.6697C80.9752 25.4255 81.5734 26.7953 81.9427 27.7104C82.3106 28.6255 82.8074 30.0923 83.0464 30.9684C83.2839 31.8444 83.5693 32.8869 83.6808 33.2851C83.7923 33.6833 84.0632 35.0516 84.2834 36.3258C84.6556 38.4789 84.715 38.673 85.1307 39.077C85.3755 39.3159 86.1272 39.9023 86.7993 40.3801C87.4713 40.8579 88.4143 41.5472 88.8966 41.9135C89.3774 42.2784 91.9223 44.1868 94.5512 46.1546C97.1801 48.1224 99.428 49.8122 99.5483 49.9092C99.6685 50.0062 99.9944 50.2538 100.272 50.4579C100.551 50.6621 101.528 51.3803 102.445 52.055C103.362 52.7298 104.247 53.4741 104.415 53.7086C104.582 53.9432 104.794 54.3631 104.887 54.6426C104.981 54.922 105.055 55.4751 105.054 55.8733C105.052 56.2715 104.99 56.8246 104.915 57.1041C104.839 57.3836 104.186 58.4261 103.463 59.4208C102.739 60.4156 101.415 62.2024 100.522 63.3897L98.236 66.4304C97.8739 66.9155 97.3554 67.638 97.0845 68.0362C96.8136 68.4344 96.2314 69.2236 95.7896 69.7883C95.3478 70.3544 94.5628 71.3883 94.0443 72.0862C93.5257 72.7826 92.7117 73.8918 92.2337 74.5506C91.7558 75.2094 89.0182 78.8597 86.1504 82.6636C83.2825 86.4659 80.6753 89.9164 80.3567 90.3305C80.038 90.7446 79.6006 91.305 79.3862 91.5772C79.1704 91.8494 78.8127 92.3128 78.5896 92.6067C78.3666 92.9021 77.6641 93.8462 77.0297 94.7063C76.3953 95.5678 75.8391 96.3048 75.7942 96.3439C75.7478 96.383 75.1004 97.2301 74.3515 98.2263C73.6041 99.221 72.8452 100.232 72.6656 100.471C72.486 100.71 71.727 101.719 70.9796 102.715C70.2322 103.71 69.1995 105.079 68.6853 105.756C68.1711 106.432 67.5063 107.328 67.2094 107.747C66.9124 108.165 66.5735 108.621 66.4562 108.76C66.3403 108.899 65.8348 109.542 65.3337 110.189C64.834 110.837 64.1228 111.781 63.7534 112.289C63.3841 112.797 62.1631 114.419 61.0391 115.891C59.9137 117.364 58.4232 119.352 57.7266 120.308C57.0284 121.263 56.1318 122.378 55.7335 122.787C55.1802 123.353 54.8558 123.558 54.3575 123.664C53.8969 123.761 53.4725 123.748 52.9091 123.616C52.4644 123.512 51.888 123.247 51.6055 123.014C51.326 122.785 50.4801 121.845 49.7226 120.925C48.9651 120.004 48.151 119.003 47.9121 118.7C47.6731 118.398 46.5621 117.008 45.4454 115.609C44.3272 114.212 42.7557 112.254 41.9533 111.258C41.1523 110.263 40.1471 108.992 39.7212 108.434C39.2939 107.877 38.8507 107.324 38.7349 107.204C38.6204 107.083 38.2265 106.595 37.8615 106.118C37.4965 105.64 37.117 105.152 37.0185 105.032C36.92 104.912 35.5599 103.219 33.9985 101.267C32.4357 99.3151 30.9742 97.4907 30.7483 97.2127C30.5223 96.9347 29.772 95.9892 29.0811 95.1132C28.3888 94.2371 27.6414 93.2916 27.4183 93.0136C27.1967 92.7356 24.5968 89.4777 21.6391 85.7738C18.6829 82.0699 15.9555 78.6599 15.5761 78.1951C15.198 77.7303 14.7258 77.1352 14.5259 76.8731C14.3275 76.6096 13.2803 75.2312 12.1983 73.8093C11.1178 72.3859 9.96342 70.8308 9.63318 70.353C9.30294 69.8751 8.75689 69.0932 8.4223 68.6154C8.08627 68.1376 7.30123 66.8344 6.6784 65.7195C6.05414 64.6046 5.15611 62.8134 4.68103 61.7376C4.20595 60.6617 3.55126 59.0328 3.22537 58.1177C2.90092 57.2026 2.41425 55.5736 2.1434 54.4978C1.87399 53.4219 1.49016 51.696 1.29173 50.6607C1.09474 49.6254 0.854304 47.9964 0.758708 47.0408C0.645731 45.9244 0.610969 44.0362 0.661664 41.7557C0.723946 38.8569 0.807954 37.8042 1.11502 36C1.3207 34.7852 1.62486 33.2865 1.78854 32.6697C1.95221 32.0529 2.1883 31.1899 2.31431 30.7512C2.43888 30.3139 2.81836 29.2047 3.15729 28.2896C3.49478 27.3745 4.12774 25.8744 4.56081 24.9593C4.99389 24.0442 5.89915 22.3834 6.56977 21.2713C7.24184 20.1593 7.85742 19.1819 7.93998 19.0994C8.02254 19.0169 8.24994 18.7229 8.44403 18.4435C8.63957 18.164 9.31888 17.2851 9.95329 16.4887C10.5891 15.6923 11.8942 14.2516 12.8545 13.2873C13.8133 12.3229 15.185 11.0487 15.9019 10.4551C16.6189 9.86139 17.4996 9.16636 17.8573 8.91152C18.2151 8.65668 19.0624 8.06736 19.7403 7.60112C20.4181 7.13632 21.4595 6.49198 22.0577 6.17198C22.6545 5.85053 23.5351 5.37994 24.0131 5.1251C24.4911 4.8717 25.6962 4.31713 26.6927 3.89433C27.6877 3.47152 29.2535 2.89523 30.1689 2.61288C31.0843 2.33053 32.5515 1.92944 33.4278 1.71949C34.3041 1.51098 35.7062 1.24455 36.542 1.12872Z" fill="#315288"/>
<path d="M37.1936 8.61464C38.1496 8.45247 39.1925 8.29609 39.5111 8.26713C39.8298 8.23672 41.1333 8.20052 42.408 8.18749C43.7144 8.17301 45.4525 8.25265 46.3911 8.36993C47.308 8.48432 48.8071 8.74206 49.7225 8.94333C50.6393 9.14604 51.9748 9.50079 52.6917 9.73247C53.4087 9.96414 54.4849 10.3522 55.0816 10.594C55.6798 10.8373 56.6257 11.2528 57.1862 11.5178C57.7467 11.7828 58.8881 12.3764 59.7209 12.8355C60.5552 13.2959 61.6937 14.0083 62.2513 14.4181C62.809 14.8278 63.7215 15.5084 64.2791 15.9298C64.8368 16.3511 66.0114 17.398 66.8877 18.2566C67.7655 19.1167 69.1067 20.6009 69.87 21.5565C70.6333 22.5122 71.6646 23.9775 72.1614 24.8145C72.6582 25.6514 73.4433 27.1167 73.9068 28.0724C74.3688 29.028 75.0148 30.56 75.3407 31.4751C75.6666 32.3902 76.1359 33.9873 76.3807 35.0226C76.6269 36.0579 76.9209 37.5232 77.0339 38.2805C77.1483 39.0378 77.241 39.9659 77.241 40.3439C77.2425 40.9998 77.2005 41.0707 76.3531 41.8642C75.8636 42.3218 75.2915 42.859 75.08 43.0588C74.87 43.2572 73.9821 44.0376 73.1087 44.7935C72.2353 45.5478 71.4879 46.1994 71.4488 46.2414C71.4097 46.282 70.7246 46.906 69.928 47.6271C69.1313 48.3482 67.7959 49.5211 66.9601 50.2335C66.1244 50.9459 64.789 52.1086 63.9909 52.8152C63.1928 53.5232 62.3455 54.2733 62.1065 54.4832C61.8675 54.6932 61.1838 55.2811 60.5856 55.7893C59.9889 56.299 59.0155 57.1446 58.426 57.6702C57.8351 58.1944 57.2485 58.7258 57.1225 58.8488C56.995 58.9734 56.5011 59.3962 56.0231 59.79C55.5451 60.1839 54.5674 61.0222 53.8505 61.6507C53.1335 62.2805 52.221 63.0957 51.8227 63.4635C51.4244 63.8298 50.3815 64.7551 49.5052 65.5196C48.6289 66.2827 47.6889 67.1616 47.418 67.4715C47.1457 67.7828 46.8039 68.3127 46.6576 68.6516C46.5055 69.002 46.3911 69.6101 46.3911 70.0633C46.3911 70.5006 46.4809 71.0711 46.591 71.3303C46.7011 71.5895 47.0443 72.034 47.3514 72.3193C47.6599 72.6045 48.6289 73.3488 49.5052 73.9728C50.3815 74.5969 51.3911 75.3209 51.7503 75.583C52.1095 75.8436 53.3797 76.7775 54.5747 77.6579C55.7696 78.5383 57.0891 79.52 57.5077 79.8371C57.9263 80.1556 58.2667 80.4974 58.2653 80.5973C58.2638 80.6972 57.6367 81.5269 56.8719 82.4434C56.1071 83.36 55.309 84.304 55.1005 84.543C54.8904 84.7819 54.3936 85.3553 53.9953 85.8157C53.597 86.2776 53.19 86.6526 53.0901 86.6483C52.9901 86.6454 45.4945 79.2289 36.4332 70.169C22.7065 56.4423 19.8242 53.6289 19.1608 53.2974C18.5684 53.0034 18.1512 52.9021 17.5313 52.9035C17.0736 52.9035 16.487 52.9918 16.2277 53.0975C15.9685 53.2032 15.5296 53.487 15.2501 53.7274C14.972 53.9663 14.5881 54.5151 14.3984 54.9466C14.1246 55.5721 14.0681 55.9022 14.1188 56.5973C14.1652 57.2054 14.3086 57.6832 14.6012 58.19C14.8315 58.5882 15.379 59.3383 15.8164 59.8552C16.2553 60.3721 16.8766 61.0888 17.1982 61.4479C17.5197 61.807 24.2085 68.5502 32.0619 76.4344C39.9152 84.3185 47.4441 91.9001 48.7926 93.2814C50.2425 94.7699 51.5388 95.9659 51.9675 96.2121C52.5353 96.5408 52.8713 96.6306 53.5246 96.632C54.1358 96.6335 54.4979 96.5466 54.8876 96.3077C55.1801 96.1281 56.0434 95.226 56.8067 94.3022C57.5715 93.3784 58.3913 92.3707 58.6303 92.0637C58.8693 91.7567 59.5326 90.9487 60.1048 90.2682C60.6769 89.5877 62.2673 87.6633 63.6389 85.9909C65.0106 84.3185 66.4648 82.5535 66.8718 82.0698C67.2773 81.5848 67.7843 80.965 67.9958 80.6943C68.2087 80.4221 68.5259 80.0369 68.7026 79.8371C68.8778 79.6387 69.3891 79.019 69.8367 78.4615C70.2843 77.904 70.684 77.4146 70.7246 77.3755C70.7637 77.3364 71.0954 76.944 71.4604 76.5068C71.8254 76.0695 72.9349 74.6997 73.9285 73.466C74.9207 72.2324 75.8708 71.0595 76.0403 70.8597C76.2098 70.6613 76.8558 69.8794 77.4757 69.1221C78.0941 68.3649 79.066 67.1935 79.6324 66.5158C80.2002 65.8382 81.0837 64.7421 81.5964 64.0774C82.1092 63.4128 82.8406 62.4354 83.2201 61.9055C83.7097 61.2206 83.9545 60.7095 84.0631 60.1448C84.1891 59.4816 84.1717 59.2152 83.9559 58.552C83.8125 58.1147 83.4663 57.5037 83.1853 57.1953C82.9044 56.8868 82.4133 56.5031 82.0947 56.3424C81.776 56.1817 81.1243 56.0152 80.6463 55.9732C79.9134 55.908 79.6527 55.9544 78.9806 56.2715C78.5243 56.4858 77.9059 56.9491 77.5322 57.356C77.173 57.7469 76.6515 58.3522 76.3734 58.7012C76.0953 59.0501 75.4088 59.8928 74.8482 60.5734C74.2891 61.2525 73.1811 62.6251 72.3888 63.6199C71.5951 64.6161 70.9129 65.4631 70.8709 65.5022C70.8303 65.5413 70.5377 65.9004 70.2205 66.2986C69.9033 66.6968 69.0893 67.6785 68.41 68.4793C67.7307 69.28 66.9152 70.2545 66.5966 70.644C66.2779 71.0335 65.4465 72.0239 64.7498 72.8434C64.0401 73.6789 63.371 74.3348 63.229 74.3363C63.09 74.3377 62.8133 74.2117 62.6134 74.0583C62.415 73.9033 61.2736 73.0534 60.0787 72.1658C58.8837 71.2796 57.5961 70.3138 57.2166 70.0199C56.8386 69.7245 56.5286 69.4031 56.5286 69.3031C56.5301 69.2032 56.6937 69.057 56.8922 68.9774C57.092 68.8977 57.2528 68.7833 57.2514 68.724C57.2499 68.6646 57.8525 68.0984 58.5912 67.4671C59.3299 66.8358 59.999 66.2494 60.0787 66.164C60.1584 66.0785 60.7435 65.5529 61.3779 64.9954C62.0138 64.438 62.7308 63.8125 62.9712 63.6068C63.2131 63.4012 64.0618 62.6526 64.8585 61.9431C65.6235 61.2632 66.4647 60.5137 66.7778 60.2348L66.8139 60.2027C67.0934 59.9536 67.8741 59.276 68.552 58.6968C69.2298 58.1176 70.2669 57.2126 70.8578 56.6856C71.4488 56.1585 72.2657 55.436 72.6727 55.0769C73.0812 54.7178 73.8358 54.0561 74.35 53.6043C74.8656 53.154 75.4508 52.6443 75.6492 52.4735C75.8491 52.3026 76.175 52.026 76.3734 51.8581C76.5733 51.6901 77.3221 51.0269 78.0377 50.3826C78.7546 49.7397 79.4137 49.1475 79.5035 49.0678C79.5933 48.9882 79.8236 48.7927 80.0148 48.6335C80.206 48.4742 80.8346 47.9688 81.4096 47.5113C81.9861 47.0537 82.5538 46.6787 82.6741 46.6787C82.7943 46.6787 83.0709 46.8322 83.2896 47.019C83.5084 47.2058 84.796 48.1947 86.1503 49.217C87.5045 50.2407 89.2977 51.5974 90.1334 52.2345L92.1612 53.7766C92.4393 53.9895 93.1896 54.5455 93.8269 55.0132C94.4642 55.4809 95.2319 56.0948 95.5331 56.3757C95.8344 56.6566 96.0792 56.9361 96.0763 56.9955C96.0734 57.0548 95.3362 58.0655 94.4381 59.2398C93.5387 60.4141 92.5914 61.668 92.3321 62.0271C92.0714 62.3862 91.5847 63.0494 91.2502 63.5012C90.9141 63.9529 90.2768 64.8 89.8336 65.3835C89.3889 65.967 88.3461 67.3542 87.5161 68.4677C86.6847 69.5812 85.9287 70.5918 85.8331 70.712C85.7389 70.8336 84.0906 73.0172 82.1715 75.5656C80.2523 78.114 78.2346 80.7855 77.6886 81.5022C77.1411 82.219 76.0678 83.6206 75.3045 84.6154C74.5412 85.6101 72.4699 88.3468 70.7029 90.6968C68.9372 93.0469 67.1948 95.3593 66.8327 95.8371C66.4691 96.3149 66.1345 96.7392 66.0882 96.7783C66.0418 96.8174 65.8478 97.0794 65.6595 97.3574C65.4697 97.6355 64.9555 98.3536 64.5152 98.9502C64.0749 99.5482 63.6766 100.069 63.6302 100.109C63.5839 100.148 63.2884 100.54 62.9755 100.977C62.6627 101.415 62.3715 101.807 62.3281 101.846C62.2861 101.885 61.9529 102.309 61.5894 102.787C61.2244 103.265 60.7073 103.982 60.4393 104.38C60.1714 104.778 59.9121 105.137 59.8614 105.176C59.8107 105.216 59.5717 105.541 59.3299 105.9C59.088 106.26 58.7968 106.649 58.681 106.769C58.5665 106.889 57.6642 108.061 56.6763 109.376C55.6885 110.69 54.5892 112.124 54.2343 112.561C53.8794 112.998 53.5014 113.373 53.3942 113.394C53.287 113.414 53.0567 113.218 52.8815 112.959C52.7077 112.7 52.2645 112.13 51.8966 111.692C51.5301 111.255 50.9377 110.505 50.5828 110.027C50.228 109.549 48.9258 107.888 47.6889 106.335C46.4519 104.781 45.0035 102.957 44.472 102.281C43.9389 101.604 42.996 100.427 42.3761 99.6655C41.7562 98.9039 39.3952 95.9717 37.1299 93.1497C34.8646 90.3276 32.3878 87.2608 31.6259 86.3341C30.864 85.4088 29.8168 84.1173 29.2997 83.4657C28.7827 82.8126 27.5761 81.3198 26.6202 80.1484C25.6642 78.9755 24.491 77.4986 24.013 76.8659C23.535 76.2316 23.0223 75.583 22.8745 75.4222C22.7268 75.263 21.9562 74.3174 21.1611 73.3212C20.3659 72.3265 19.6069 71.381 19.4737 71.2202C19.3419 71.061 18.4467 69.8881 17.4864 68.6139C16.5261 67.3412 15.3471 65.7122 14.8662 64.9954C14.3854 64.2787 13.6698 63.1059 13.2744 62.3891C12.8804 61.6724 12.1475 60.207 11.6464 59.1312C11.1452 58.0554 10.4558 56.3627 10.114 55.3665C9.77213 54.3717 9.35788 53.0034 9.19421 52.3258C9.02909 51.6481 8.793 50.5737 8.66988 49.9366C8.54677 49.2995 8.34109 47.9645 8.21218 46.9683C8.03692 45.6072 7.99637 44.4575 8.05286 42.3348C8.09341 40.7812 8.23536 38.8264 8.36716 37.9909C8.49897 37.1555 8.76693 35.7857 8.96391 34.9502C9.15945 34.1147 9.58529 32.6479 9.90973 31.6923C10.2342 30.7366 10.9714 28.9774 11.5479 27.7828C12.1244 26.5882 13.0427 24.9274 13.5887 24.0905C14.1348 23.2536 15.1356 21.8867 15.812 21.0497C16.4885 20.2128 17.5675 19.0168 18.2092 18.3913C18.8523 17.7643 19.9647 16.7594 20.6816 16.1556C21.3986 15.5533 22.7992 14.5296 23.7957 13.8809C24.7908 13.2322 26.2899 12.3591 27.1271 11.9421C27.9643 11.525 28.7783 11.1138 28.9376 11.0284C29.097 10.943 29.9443 10.6172 30.8206 10.3044C31.6969 9.99165 33.0975 9.55002 33.9347 9.32124C34.7704 9.09391 36.2377 8.77536 37.1936 8.61464Z" fill="#FCFDFD"/>
<path d="M39.3663 13.6144C40.1629 13.487 41.0102 13.361 41.2492 13.3349C41.4882 13.3103 42.5962 13.3089 43.7115 13.3349C44.9079 13.3624 46.3621 13.4971 47.2601 13.6636C48.0959 13.82 49.3024 14.1183 49.9397 14.3282C50.577 14.5382 51.7169 15.0175 52.4745 15.391C53.232 15.7661 54.4356 16.4596 55.1511 16.9331C55.8985 17.4254 57.1051 18.439 57.9843 19.3121C59.03 20.3503 59.8657 21.3595 60.6233 22.4976C61.2331 23.4128 61.9384 24.5871 62.1905 25.104C62.4425 25.6209 62.864 26.6316 63.1247 27.3483C63.3869 28.0651 63.7417 29.3031 63.9141 30.0995C64.1357 31.1246 64.2516 32.2888 64.3095 34.0814C64.3732 36.0853 64.3399 36.9179 64.1458 38.0632C64.0111 38.8596 63.8011 39.8703 63.678 40.3076C63.5549 40.7449 63.3622 41.3965 63.2478 41.7556C63.1348 42.1147 62.9828 42.5375 62.9132 42.6967C62.8423 42.856 62.5091 43.5728 62.1745 44.2895C61.84 45.0062 61.2664 46.0806 60.9014 46.6786C60.5364 47.2752 59.8904 48.2207 59.466 48.7782C59.0416 49.3356 57.8336 50.6417 56.7792 51.6799C55.7262 52.7195 54.3429 54.0227 53.7056 54.5758C53.0683 55.1304 52.4745 55.6488 52.3861 55.7284C52.2992 55.808 51.6836 56.3612 51.0217 56.9592C50.3583 57.5557 49.4849 58.3043 49.0808 58.6214C48.6767 58.9371 48.3131 59.2368 48.274 59.2861C48.2349 59.3353 47.5831 59.8421 46.8256 60.414C46.0681 60.9874 45.0904 61.5941 44.653 61.765C44.1026 61.9793 43.5203 62.0763 42.77 62.0821C41.9053 62.0879 41.5215 62.0155 40.8871 61.7244C40.4497 61.5232 39.7646 61.1366 39.3663 60.8643C38.9679 60.5936 38.4798 60.2301 38.2799 60.0578C38.0815 59.887 36.9401 58.9096 35.7452 57.8873C34.5503 56.8651 33.3452 55.8254 33.0656 55.5764C32.7861 55.3273 31.8142 54.4455 30.9031 53.6158C29.9935 52.7876 28.7088 51.5221 28.0497 50.8053C27.3907 50.0886 26.4811 49.0142 26.0306 48.4162C25.5802 47.8196 24.8835 46.7771 24.4837 46.0994C24.0854 45.4218 23.5147 44.3156 23.2164 43.6379C22.918 42.9603 22.5095 41.8859 22.3082 41.2488C22.1069 40.6117 21.823 39.504 21.6781 38.7872C21.4783 37.807 21.4131 36.8194 21.4102 34.8053C21.4087 33.1141 21.4812 31.753 21.6072 31.113C21.7172 30.5556 22.0171 29.4479 22.2749 28.6515C22.5327 27.8551 22.9832 26.6823 23.2772 26.0452C23.5698 25.408 24.1129 24.3988 24.4808 23.8008C24.8502 23.2042 25.4238 22.3572 25.7569 21.9185C26.0886 21.4797 26.7128 20.7369 27.143 20.2663C27.5718 19.7957 28.4452 18.9762 29.0825 18.4462C29.7198 17.9148 30.7293 17.1489 31.3275 16.7434C31.9243 16.338 33.0004 15.7313 33.7174 15.3939C34.4344 15.058 35.6728 14.5715 36.4694 14.3137C37.266 14.056 38.5696 13.7418 39.3663 13.6144Z" fill="#315288"/>
<path d="M40.4527 21.0629C40.9698 20.9774 41.6868 20.8862 42.046 20.8602C42.4052 20.8341 43.2511 20.8399 43.9289 20.8717C44.6068 20.9036 45.7134 21.0585 46.3912 21.2178C47.0691 21.3756 48.2742 21.8202 49.0708 22.2053C49.8675 22.5905 50.9436 23.2276 51.4607 23.6214C51.9778 24.0138 52.7933 24.7537 53.2727 25.2634C53.7507 25.7731 54.4488 26.6795 54.824 27.2761C55.2005 27.8741 55.7336 28.9152 56.0102 29.5928C56.2869 30.2705 56.6157 31.313 56.7388 31.9096C56.872 32.5481 56.9647 33.7253 56.9647 34.7693C56.9647 35.7452 56.872 37.0151 56.7605 37.5928C56.6475 38.1706 56.4027 39.0669 56.2159 39.5838C56.029 40.1007 55.5177 41.1027 55.0803 41.8093C54.6429 42.5159 53.7637 43.6294 53.1264 44.2824C52.4891 44.9369 51.6751 45.6985 51.3159 45.9751C50.9567 46.2531 50.3382 46.66 49.9399 46.8801C49.5416 47.1002 48.7275 47.4665 48.1294 47.6938C47.5326 47.9212 46.7823 48.176 46.4637 48.26C46.145 48.344 45.2325 48.4757 44.4359 48.5525C43.5016 48.6422 42.4472 48.6408 41.4666 48.5496C40.6309 48.4728 39.4736 48.2803 38.8957 48.1224C38.3177 47.966 37.4704 47.6649 37.0127 47.4549C36.555 47.245 35.8207 46.8468 35.3832 46.5688C34.9458 46.2908 34.1709 45.7289 33.6625 45.3206C33.1527 44.9137 32.3155 44.058 31.7999 43.4209C31.2842 42.7838 30.5788 41.6761 30.2327 40.9594C29.8865 40.2426 29.4288 39.0698 29.2173 38.353C28.8842 37.2308 28.8291 36.7776 28.8233 35.0951C28.8176 33.5574 28.8827 32.871 29.1304 31.8734C29.3028 31.1769 29.5954 30.2314 29.7793 29.7738C29.9633 29.3163 30.4673 28.3548 30.8989 27.6381C31.3306 26.9213 32.1098 25.8875 32.6283 25.3402C33.1483 24.7928 33.9638 24.0327 34.4418 23.6504C34.9197 23.2681 35.67 22.7628 36.1075 22.5268C36.5449 22.2908 37.4907 21.9012 38.2077 21.6594C38.9246 21.4176 39.9356 21.1498 40.4527 21.0629Z" fill="#FCFDFD"/>
</svg>
