<svg width="111" height="128" viewBox="0 0 111 128" fill="none" xmlns="http://www.w3.org/2000/svg">
<path d="M0 128V64V0H110.08V128H0Z" fill="#FCFDFD"/>
<path d="M39.542 5.12872C40.3777 5.01433 41.8449 4.86664 42.8009 4.80148C43.7569 4.73777 45.0604 4.70446 45.6977 4.72908C46.335 4.7537 47.7038 4.80437 48.7394 4.84202C49.775 4.87967 51.3075 5.01143 52.1432 5.13451C52.979 5.25903 54.6084 5.59496 55.7643 5.88166C56.9201 6.16836 58.6148 6.65922 59.5302 6.97198C60.4456 7.28474 62.3691 8.12021 63.803 8.82682C65.2369 9.53487 67.2893 10.6947 68.3655 11.4042C69.4417 12.1151 70.9075 13.1519 71.6245 13.7094C72.3414 14.2668 73.6392 15.4006 74.5083 16.2303C75.3788 17.0585 76.7664 18.5195 77.5934 19.4751C78.4205 20.4308 79.7038 22.1249 80.4439 23.2398C81.1841 24.3548 82.0517 25.7231 82.3718 26.2806C82.6919 26.838 83.2495 27.9139 83.6116 28.6697C83.9752 29.4255 84.5734 30.7953 84.9427 31.7104C85.3106 32.6255 85.8074 34.0923 86.0464 34.9684C86.2839 35.8444 86.5693 36.8869 86.6808 37.2851C86.7923 37.6833 87.0632 39.0516 87.2834 40.3258C87.6556 42.4789 87.715 42.673 88.1307 43.077C88.3755 43.3159 89.1272 43.9023 89.7993 44.3801C90.4713 44.8579 91.4143 45.5472 91.8966 45.9135C92.3774 46.2784 94.9223 48.1868 97.5512 50.1546C100.18 52.1224 102.428 53.8122 102.548 53.9092C102.668 54.0062 102.994 54.2538 103.272 54.4579C103.551 54.6621 104.528 55.3803 105.445 56.055C106.362 56.7298 107.247 57.4741 107.415 57.7086C107.582 57.9432 107.794 58.3631 107.887 58.6426C107.981 58.922 108.055 59.4751 108.054 59.8733C108.052 60.2715 107.99 60.8246 107.915 61.1041C107.839 61.3836 107.186 62.4261 106.463 63.4208C105.739 64.4156 104.415 66.2024 103.522 67.3897L101.236 70.4304C100.874 70.9155 100.355 71.638 100.085 72.0362C99.8136 72.4344 99.2314 73.2236 98.7896 73.7883C98.3478 74.3544 97.5628 75.3883 97.0443 76.0862C96.5257 76.7826 95.7117 77.8918 95.2337 78.5506C94.7558 79.2094 92.0182 82.8597 89.1504 86.6636C86.2825 90.4659 83.6753 93.9164 83.3567 94.3305C83.038 94.7446 82.6006 95.305 82.3862 95.5772C82.1704 95.8494 81.8127 96.3128 81.5896 96.6067C81.3666 96.9021 80.6641 97.8462 80.0297 98.7063C79.3953 99.5678 78.8391 100.305 78.7942 100.344C78.7478 100.383 78.1004 101.23 77.3515 102.226C76.6041 103.221 75.8452 104.232 75.6656 104.471C75.486 104.71 74.727 105.719 73.9796 106.715C73.2322 107.71 72.1995 109.079 71.6853 109.756C71.1711 110.432 70.5063 111.328 70.2094 111.747C69.9124 112.165 69.5735 112.621 69.4562 112.76C69.3403 112.899 68.8348 113.542 68.3337 114.189C67.834 114.837 67.1228 115.781 66.7534 116.289C66.3841 116.797 65.1631 118.419 64.0391 119.891C62.9137 121.364 61.4232 123.352 60.7266 124.308C60.0284 125.263 59.1318 126.378 58.7335 126.787C58.1802 127.353 57.8558 127.558 57.3575 127.664C56.8969 127.761 56.4725 127.748 55.9091 127.616C55.4644 127.512 54.888 127.247 54.6055 127.014C54.326 126.785 53.4801 125.845 52.7226 124.925C51.9651 124.004 51.151 123.003 50.9121 122.7C50.6731 122.398 49.5621 121.008 48.4454 119.609C47.3272 118.212 45.7557 116.254 44.9533 115.258C44.1523 114.263 43.1471 112.992 42.7212 112.434C42.2939 111.877 41.8507 111.324 41.7349 111.204C41.6204 111.083 41.2265 110.595 40.8615 110.118C40.4965 109.64 40.117 109.152 40.0185 109.032C39.92 108.912 38.5599 107.219 36.9985 105.267C35.4357 103.315 33.9742 101.491 33.7483 101.213C33.5223 100.935 32.772 99.9892 32.0811 99.1132C31.3888 98.2371 30.6414 97.2916 30.4183 97.0136C30.1967 96.7356 27.5968 93.4777 24.6391 89.7738C21.6829 86.0699 18.9555 82.6599 18.5761 82.1951C18.198 81.7303 17.7258 81.1352 17.5259 80.8731C17.3275 80.6096 16.2803 79.2312 15.1983 77.8093C14.1178 76.3859 12.9634 74.8308 12.6332 74.353C12.3029 73.8751 11.7569 73.0932 11.4223 72.6154C11.0863 72.1376 10.3012 70.8344 9.6784 69.7195C9.05414 68.6046 8.15611 66.8134 7.68103 65.7376C7.20595 64.6617 6.55126 63.0328 6.22537 62.1177C5.90092 61.2026 5.41425 59.5736 5.1434 58.4978C4.87399 57.4219 4.49016 55.696 4.29173 54.6607C4.09474 53.6254 3.8543 51.9964 3.75871 51.0408C3.64573 49.9244 3.61097 48.0362 3.66166 45.7557C3.72395 42.8569 3.80795 41.8042 4.11502 40C4.3207 38.7852 4.62486 37.2865 4.78854 36.6697C4.95221 36.0529 5.1883 35.1899 5.31431 34.7512C5.43888 34.3139 5.81836 33.2047 6.15729 32.2896C6.49478 31.3745 7.12774 29.8744 7.56081 28.9593C7.99389 28.0442 8.89915 26.3834 9.56977 25.2713C10.2418 24.1593 10.8574 23.1819 10.94 23.0994C11.0225 23.0169 11.2499 22.7229 11.444 22.4435C11.6396 22.164 12.3189 21.2851 12.9533 20.4887C13.5891 19.6923 14.8942 18.2516 15.8545 17.2873C16.8133 16.3229 18.185 15.0487 18.9019 14.4551C19.6189 13.8614 20.4996 13.1664 20.8573 12.9115C21.2151 12.6567 22.0624 12.0674 22.7403 11.6011C23.4181 11.1363 24.4595 10.492 25.0577 10.172C25.6545 9.85053 26.5351 9.37994 27.0131 9.1251C27.4911 8.8717 28.6962 8.31713 29.6927 7.89433C30.6877 7.47152 32.2535 6.89523 33.1689 6.61288C34.0843 6.33053 35.5515 5.92944 36.4278 5.71949C37.3041 5.51098 38.7062 5.24455 39.542 5.12872Z" fill="#010201"/>
<path d="M40.1936 12.6146C41.1496 12.4525 42.1925 12.2961 42.5111 12.2671C42.8298 12.2367 44.1333 12.2005 45.408 12.1875C46.7144 12.173 48.4525 12.2526 49.3911 12.3699C50.308 12.4843 51.8071 12.7421 52.7225 12.9433C53.6393 13.146 54.9748 13.5008 55.6917 13.7325C56.4087 13.9641 57.4849 14.3522 58.0816 14.594C58.6798 14.8373 59.6257 15.2528 60.1862 15.5178C60.7467 15.7828 61.8881 16.3764 62.7209 16.8355C63.5552 17.2959 64.6937 18.0083 65.2513 18.4181C65.809 18.8278 66.7215 19.5084 67.2791 19.9298C67.8368 20.3511 69.0114 21.398 69.8877 22.2566C70.7655 23.1167 72.1067 24.6009 72.87 25.5565C73.6333 26.5122 74.6646 27.9775 75.1614 28.8145C75.6582 29.6514 76.4433 31.1167 76.9068 32.0724C77.3688 33.028 78.0148 34.56 78.3407 35.4751C78.6666 36.3902 79.1359 37.9873 79.3807 39.0226C79.6269 40.0579 79.9209 41.5232 80.0339 42.2805C80.1483 43.0378 80.241 43.9659 80.241 44.3439C80.2425 44.9998 80.2005 45.0707 79.3531 45.8642C78.8636 46.3218 78.2915 46.859 78.08 47.0588C77.87 47.2572 76.9821 48.0376 76.1087 48.7935C75.2353 49.5478 74.4879 50.1994 74.4488 50.2414C74.4097 50.282 73.7246 50.906 72.928 51.6271C72.1313 52.3482 70.7959 53.5211 69.9601 54.2335C69.1244 54.9459 67.789 56.1086 66.9909 56.8152C66.1928 57.5232 65.3455 58.2733 65.1065 58.4832C64.8675 58.6932 64.1838 59.2811 63.5856 59.7893C62.9889 60.299 62.0155 61.1446 61.426 61.6702C60.8351 62.1944 60.2485 62.7258 60.1225 62.8488C59.995 62.9734 59.5011 63.3962 59.0231 63.79C58.5451 64.1839 57.5674 65.0222 56.8505 65.6507C56.1335 66.2805 55.221 67.0957 54.8227 67.4635C54.4244 67.8298 53.3815 68.7551 52.5052 69.5196C51.6289 70.2827 50.6889 71.1616 50.418 71.4715C50.1457 71.7828 49.8039 72.3127 49.6576 72.6516C49.5055 73.002 49.3911 73.6101 49.3911 74.0633C49.3911 74.5006 49.4809 75.0711 49.591 75.3303C49.7011 75.5895 50.0443 76.034 50.3514 76.3193C50.6599 76.6045 51.6289 77.3488 52.5052 77.9728C53.3815 78.5969 54.3911 79.3209 54.7503 79.583C55.1095 79.8436 56.3797 80.7775 57.5747 81.6579C58.7696 82.5383 60.0891 83.52 60.5077 83.8371C60.9263 84.1556 61.2667 84.4974 61.2653 84.5973C61.2638 84.6972 60.6367 85.5269 59.8719 86.4434C59.1071 87.36 58.309 88.304 58.1005 88.543C57.8904 88.7819 57.3936 89.3553 56.9953 89.8157C56.597 90.2776 56.19 90.6526 56.0901 90.6483C55.9901 90.6454 48.4945 83.2289 39.4332 74.169C25.7065 60.4423 22.8242 57.6289 22.1608 57.2974C21.5684 57.0034 21.1512 56.9021 20.5313 56.9035C20.0736 56.9035 19.487 56.9918 19.2277 57.0975C18.9685 57.2032 18.5296 57.487 18.2501 57.7274C17.972 57.9663 17.5881 58.5151 17.3984 58.9466C17.1246 59.5721 17.0681 59.9022 17.1188 60.5973C17.1652 61.2054 17.3086 61.6832 17.6012 62.19C17.8315 62.5882 18.379 63.3383 18.8164 63.8552C19.2553 64.3721 19.8766 65.0888 20.1982 65.4479C20.5197 65.807 27.2085 72.5502 35.0619 80.4344C42.9152 88.3185 50.4441 95.9001 51.7926 97.2814C53.2425 98.7699 54.5388 99.9659 54.9675 100.212C55.5353 100.541 55.8713 100.631 56.5246 100.632C57.1358 100.633 57.4979 100.547 57.8876 100.308C58.1801 100.128 59.0434 99.226 59.8067 98.3022C60.5715 97.3784 61.3913 96.3707 61.6303 96.0637C61.8693 95.7567 62.5326 94.9487 63.1048 94.2682C63.6769 93.5877 65.2673 91.6633 66.6389 89.9909C68.0106 88.3185 69.4648 86.5535 69.8718 86.0698C70.2773 85.5848 70.7843 84.965 70.9958 84.6943C71.2087 84.4221 71.5259 84.0369 71.7026 83.8371C71.8778 83.6387 72.3891 83.019 72.8367 82.4615C73.2843 81.904 73.684 81.4146 73.7246 81.3755C73.7637 81.3364 74.0954 80.944 74.4604 80.5068C74.8254 80.0695 75.9349 78.6997 76.9285 77.466C77.9207 76.2324 78.8708 75.0595 79.0403 74.8597C79.2098 74.6613 79.8558 73.8794 80.4757 73.1221C81.0941 72.3649 82.066 71.1935 82.6324 70.5158C83.2002 69.8382 84.0837 68.7421 84.5964 68.0774C85.1092 67.4128 85.8406 66.4354 86.2201 65.9055C86.7097 65.2206 86.9545 64.7095 87.0631 64.1448C87.1891 63.4816 87.1717 63.2152 86.9559 62.552C86.8125 62.1147 86.4663 61.5037 86.1853 61.1953C85.9044 60.8868 85.4133 60.5031 85.0947 60.3424C84.776 60.1817 84.1243 60.0152 83.6463 59.9732C82.9134 59.908 82.6527 59.9544 81.9806 60.2715C81.5243 60.4858 80.9059 60.9491 80.5322 61.356C80.173 61.7469 79.6515 62.3522 79.3734 62.7012C79.0953 63.0501 78.4088 63.8928 77.8482 64.5734C77.2891 65.2525 76.1811 66.6251 75.3888 67.6199C74.5951 68.6161 73.9129 69.4631 73.8709 69.5022C73.8303 69.5413 73.5377 69.9004 73.2205 70.2986C72.9033 70.6968 72.0893 71.6785 71.41 72.4793C70.7307 73.28 69.9152 74.2545 69.5966 74.644C69.2779 75.0335 68.4465 76.0239 67.7498 76.8434C67.0401 77.6789 66.371 78.3348 66.229 78.3363C66.09 78.3377 65.8133 78.2117 65.6134 78.0583C65.415 77.9033 64.2736 77.0534 63.0787 76.1658C61.8837 75.2796 60.5961 74.3138 60.2166 74.0199C59.8386 73.7245 59.5286 73.4031 59.5286 73.3031C59.5301 73.2032 59.6937 73.057 59.8922 72.9774C60.092 72.8977 60.2528 72.7833 60.2514 72.724C60.2499 72.6646 60.8525 72.0984 61.5912 71.4671C62.3299 70.8358 62.999 70.2494 63.0787 70.164C63.1584 70.0785 63.7435 69.5529 64.3779 68.9954C65.0138 68.438 65.7308 67.8125 65.9712 67.6068C66.2131 67.4012 67.0618 66.6526 67.8585 65.9431C68.6235 65.2632 69.4647 64.5137 69.7778 64.2348L69.8139 64.2027C70.0934 63.9536 70.8741 63.276 71.552 62.6968C72.2298 62.1176 73.2669 61.2126 73.8578 60.6856C74.4488 60.1585 75.2657 59.436 75.6727 59.0769C76.0812 58.7178 76.8358 58.0561 77.35 57.6043C77.8656 57.154 78.4508 56.6443 78.6492 56.4735C78.8491 56.3026 79.175 56.026 79.3734 55.8581C79.5733 55.6901 80.3221 55.0269 81.0377 54.3826C81.7546 53.7397 82.4137 53.1475 82.5035 53.0678C82.5933 52.9882 82.8236 52.7927 83.0148 52.6335C83.206 52.4742 83.8346 51.9688 84.4096 51.5113C84.9861 51.0537 85.5538 50.6787 85.6741 50.6787C85.7943 50.6787 86.0709 50.8322 86.2896 51.019C86.5084 51.2058 87.796 52.1947 89.1503 53.217C90.5045 54.2407 92.2977 55.5974 93.1334 56.2345L95.1612 57.7766C95.4393 57.9895 96.1896 58.5455 96.8269 59.0132C97.4642 59.4809 98.2319 60.0948 98.5331 60.3757C98.8344 60.6566 99.0792 60.9361 99.0763 60.9955C99.0734 61.0548 98.3362 62.0655 97.4381 63.2398C96.5387 64.4141 95.5914 65.668 95.3321 66.0271C95.0714 66.3862 94.5847 67.0494 94.2502 67.5012C93.9141 67.9529 93.2768 68.8 92.8336 69.3835C92.3889 69.967 91.3461 71.3542 90.5161 72.4677C89.6847 73.5812 88.9287 74.5918 88.8331 74.712C88.7389 74.8336 87.0906 77.0172 85.1715 79.5656C83.2523 82.114 81.2346 84.7855 80.6886 85.5022C80.1411 86.219 79.0678 87.6206 78.3045 88.6154C77.5412 89.6101 75.4699 92.3468 73.7029 94.6968C71.9372 97.0469 70.1948 99.3593 69.8327 99.8371C69.4691 100.315 69.1345 100.739 69.0882 100.778C69.0418 100.817 68.8478 101.079 68.6595 101.357C68.4697 101.635 67.9555 102.354 67.5152 102.95C67.0749 103.548 66.6766 104.069 66.6302 104.109C66.5839 104.148 66.2884 104.54 65.9755 104.977C65.6627 105.415 65.3715 105.807 65.3281 105.846C65.2861 105.885 64.9529 106.309 64.5894 106.787C64.2244 107.265 63.7073 107.982 63.4393 108.38C63.1714 108.778 62.9121 109.137 62.8614 109.176C62.8107 109.216 62.5717 109.541 62.3299 109.9C62.088 110.26 61.7968 110.649 61.681 110.769C61.5665 110.889 60.6642 112.061 59.6763 113.376C58.6885 114.69 57.5892 116.124 57.2343 116.561C56.8794 116.998 56.5014 117.373 56.3942 117.394C56.287 117.414 56.0567 117.218 55.8815 116.959C55.7077 116.7 55.2645 116.13 54.8966 115.692C54.5301 115.255 53.9377 114.505 53.5828 114.027C53.228 113.549 51.9258 111.888 50.6889 110.335C49.4519 108.781 48.0035 106.957 47.472 106.281C46.9389 105.604 45.996 104.427 45.3761 103.665C44.7562 102.904 42.3952 99.9717 40.1299 97.1497C37.8646 94.3276 35.3878 91.2608 34.6259 90.3341C33.864 89.4088 32.8168 88.1173 32.2997 87.4657C31.7827 86.8126 30.5761 85.3198 29.6202 84.1484C28.6642 82.9755 27.491 81.4986 27.013 80.8659C26.535 80.2316 26.0223 79.583 25.8745 79.4222C25.7268 79.263 24.9562 78.3174 24.1611 77.3212C23.3659 76.3265 22.6069 75.381 22.4737 75.2202C22.3419 75.061 21.4467 73.8881 20.4864 72.6139C19.5261 71.3412 18.3471 69.7122 17.8662 68.9954C17.3854 68.2787 16.6698 67.1059 16.2744 66.3891C15.8804 65.6724 15.1475 64.207 14.6464 63.1312C14.1452 62.0554 13.4558 60.3627 13.114 59.3665C12.7721 58.3717 12.3579 57.0034 12.1942 56.3258C12.0291 55.6481 11.793 54.5737 11.6699 53.9366C11.5468 53.2995 11.3411 51.9645 11.2122 50.9683C11.0369 49.6072 10.9964 48.4575 11.0529 46.3348C11.0934 44.7812 11.2354 42.8264 11.3672 41.9909C11.499 41.1555 11.7669 39.7857 11.9639 38.9502C12.1594 38.1147 12.5853 36.6479 12.9097 35.6923C13.2342 34.7366 13.9714 32.9774 14.5479 31.7828C15.1244 30.5882 16.0427 28.9274 16.5887 28.0905C17.1348 27.2536 18.1356 25.8867 18.812 25.0497C19.4885 24.2128 20.5675 23.0168 21.2092 22.3913C21.8523 21.7643 22.9647 20.7594 23.6816 20.1556C24.3986 19.5533 25.7992 18.5296 26.7957 17.8809C27.7908 17.2322 29.2899 16.3591 30.1271 15.9421C30.9643 15.525 31.7783 15.1138 31.9376 15.0284C32.097 14.943 32.9443 14.6172 33.8206 14.3044C34.6969 13.9917 36.0975 13.55 36.9347 13.3212C37.7704 13.0939 39.2377 12.7754 40.1936 12.6146Z" fill="#FCFDFD"/>
<path d="M42.3663 17.6144C43.1629 17.487 44.0102 17.361 44.2492 17.3349C44.4882 17.3103 45.5962 17.3089 46.7115 17.3349C47.9079 17.3624 49.3621 17.4971 50.2601 17.6636C51.0959 17.82 52.3024 18.1183 52.9397 18.3282C53.577 18.5382 54.7169 19.0175 55.4745 19.391C56.232 19.7661 57.4356 20.4596 58.1511 20.9331C58.8985 21.4254 60.1051 22.439 60.9843 23.3121C62.03 24.3503 62.8657 25.3595 63.6233 26.4976C64.2331 27.4128 64.9384 28.5871 65.1905 29.104C65.4425 29.6209 65.864 30.6316 66.1247 31.3483C66.3869 32.0651 66.7417 33.3031 66.9141 34.0995C67.1357 35.1246 67.2516 36.2888 67.3095 38.0814C67.3732 40.0853 67.3399 40.9179 67.1458 42.0632C67.0111 42.8596 66.8011 43.8703 66.678 44.3076C66.5549 44.7449 66.3622 45.3965 66.2478 45.7556C66.1348 46.1147 65.9828 46.5375 65.9132 46.6967C65.8423 46.856 65.5091 47.5728 65.1745 48.2895C64.84 49.0062 64.2664 50.0806 63.9014 50.6786C63.5364 51.2752 62.8904 52.2207 62.466 52.7782C62.0416 53.3356 60.8336 54.6417 59.7792 55.6799C58.7262 56.7195 57.3429 58.0227 56.7056 58.5758C56.0683 59.1304 55.4745 59.6488 55.3861 59.7284C55.2992 59.808 54.6836 60.3612 54.0217 60.9592C53.3583 61.5557 52.4849 62.3043 52.0808 62.6214C51.6767 62.9371 51.3131 63.2368 51.274 63.2861C51.2349 63.3353 50.5831 63.8421 49.8256 64.414C49.0681 64.9874 48.0904 65.5941 47.653 65.765C47.1026 65.9793 46.5203 66.0763 45.77 66.0821C44.9053 66.0879 44.5215 66.0155 43.8871 65.7244C43.4497 65.5232 42.7646 65.1366 42.3663 64.8643C41.9679 64.5936 41.4798 64.2301 41.2799 64.0578C41.0815 63.887 39.9401 62.9096 38.7452 61.8873C37.5503 60.8651 36.3452 59.8254 36.0656 59.5764C35.7861 59.3273 34.8142 58.4455 33.9031 57.6158C32.9935 56.7876 31.7088 55.5221 31.0497 54.8053C30.3907 54.0886 29.4811 53.0142 29.0306 52.4162C28.5802 51.8196 27.8835 50.7771 27.4837 50.0994C27.0854 49.4218 26.5147 48.3156 26.2164 47.6379C25.918 46.9603 25.5095 45.8859 25.3082 45.2488C25.1069 44.6117 24.823 43.504 24.6781 42.7872C24.4783 41.807 24.4131 40.8194 24.4102 38.8053C24.4087 37.1141 24.4812 35.753 24.6072 35.113C24.7172 34.5556 25.0171 33.4479 25.2749 32.6515C25.5327 31.8551 25.9832 30.6823 26.2772 30.0452C26.5698 29.408 27.1129 28.3988 27.4808 27.8008C27.8502 27.2042 28.4238 26.3572 28.7569 25.9185C29.0886 25.4797 29.7128 24.7369 30.143 24.2663C30.5718 23.7957 31.4452 22.9762 32.0825 22.4462C32.7198 21.9148 33.7293 21.1489 34.3275 20.7434C34.9243 20.338 36.0004 19.7313 36.7174 19.3939C37.4344 19.058 38.6728 18.5715 39.4694 18.3137C40.266 18.056 41.5696 17.7418 42.3663 17.6144Z" fill="#010201"/>
<path d="M43.4527 25.0629C43.9698 24.9774 44.6868 24.8862 45.046 24.8602C45.4052 24.8341 46.2511 24.8399 46.9289 24.8717C47.6068 24.9036 48.7134 25.0585 49.3912 25.2178C50.0691 25.3756 51.2742 25.8202 52.0708 26.2053C52.8675 26.5905 53.9436 27.2276 54.4607 27.6214C54.9778 28.0138 55.7933 28.7537 56.2727 29.2634C56.7507 29.7731 57.4488 30.6795 57.824 31.2761C58.2005 31.8741 58.7336 32.9152 59.0102 33.5928C59.2869 34.2705 59.6157 35.313 59.7388 35.9096C59.872 36.5481 59.9647 37.7253 59.9647 38.7693C59.9647 39.7452 59.872 41.0151 59.7605 41.5928C59.6475 42.1706 59.4027 43.0669 59.2159 43.5838C59.029 44.1007 58.5177 45.1027 58.0803 45.8093C57.6429 46.5159 56.7637 47.6294 56.1264 48.2824C55.4891 48.9369 54.6751 49.6985 54.3159 49.9751C53.9567 50.2531 53.3382 50.66 52.9399 50.8801C52.5416 51.1002 51.7275 51.4665 51.1294 51.6938C50.5326 51.9212 49.7823 52.176 49.4637 52.26C49.145 52.344 48.2325 52.4757 47.4359 52.5525C46.5016 52.6422 45.4472 52.6408 44.4666 52.5496C43.6309 52.4728 42.4736 52.2803 41.8957 52.1224C41.3177 51.966 40.4704 51.6649 40.0127 51.4549C39.555 51.245 38.8207 50.8468 38.3832 50.5688C37.9458 50.2908 37.1709 49.7289 36.6625 49.3206C36.1527 48.9137 35.3155 48.058 34.7999 47.4209C34.2842 46.7838 33.5788 45.6761 33.2327 44.9594C32.8865 44.2426 32.4288 43.0698 32.2173 42.353C31.8842 41.2308 31.8291 40.7776 31.8233 39.0951C31.8176 37.5574 31.8827 36.871 32.1304 35.8734C32.3028 35.1769 32.5954 34.2314 32.7793 33.7738C32.9633 33.3163 33.4673 32.3548 33.8989 31.6381C34.3306 30.9213 35.1098 29.8875 35.6283 29.3402C36.1483 28.7928 36.9638 28.0327 37.4418 27.6504C37.9197 27.2681 38.67 26.7628 39.1075 26.5268C39.5449 26.2908 40.4907 25.9012 41.2077 25.6594C41.9246 25.4176 42.9356 25.1498 43.4527 25.0629Z" fill="#FCFDFD"/>
</svg>
