<svg width="159" height="126" viewBox="0 0 159 126" fill="none" xmlns="http://www.w3.org/2000/svg">
<path d="M110.012 1.88405C111.882 1.34106 113.705 0.831376 114.064 0.753186C114.423 0.674996 115.464 0.604046 116.38 0.598254C117.296 0.591014 118.5 0.650381 119.058 0.730019C119.615 0.811105 120.493 0.980517 121.012 1.10939C121.53 1.23825 122.44 1.53943 123.038 1.77834C123.634 2.01871 124.416 2.3778 124.775 2.57762C125.134 2.77744 125.817 3.20169 126.294 3.52025C126.772 3.8388 127.68 4.62794 128.312 5.27228C128.945 5.91663 129.797 6.96495 130.208 7.60205C130.619 8.23916 131.085 9.02106 131.246 9.33961C131.405 9.65816 131.738 10.4719 131.984 11.1496C132.229 11.8258 132.955 14.1715 133.596 16.3622C134.237 18.5516 134.854 20.6366 134.968 20.9957C135.081 21.3534 135.319 22.1686 135.494 22.8057C135.669 23.4428 135.896 24.2247 135.996 24.5432C136.097 24.8618 136.487 26.1649 136.86 27.4392C137.235 28.7134 138.089 31.5803 138.758 33.8102C139.426 36.0401 139.973 37.9789 139.972 38.1179C139.972 38.2569 140.069 38.4697 140.189 38.5885C140.37 38.7695 140.724 38.7897 142.324 38.713C143.635 38.6507 144.585 38.6797 145.327 38.8086C145.973 38.9201 146.822 39.2039 147.426 39.5094C148.025 39.812 148.765 40.3507 149.235 40.8256C149.673 41.2672 150.145 41.7754 150.284 41.955C150.423 42.1345 150.791 42.7528 151.099 43.3306C151.407 43.9083 151.944 45.2868 152.926 48.41L153.866 49.0906C154.385 49.4656 155.252 50.2533 155.796 50.8411C156.34 51.429 157.003 52.3007 157.269 52.7785C157.535 53.2563 157.913 54.0716 158.109 54.5885C158.304 55.1054 158.572 56.1479 158.703 56.9052C158.923 58.1592 158.941 60.486 158.86 108.38L158.52 109.394C158.333 109.951 157.893 110.962 157.544 111.638C157.195 112.314 156.502 113.354 156.003 113.948C155.505 114.54 154.803 115.242 154.445 115.507C154.088 115.772 153.565 116.173 153.287 116.398C152.946 116.674 152.48 117.394 151.858 118.603C151.349 119.59 150.689 120.724 150.391 121.122C150.093 121.521 149.533 122.166 149.144 122.559C148.756 122.951 147.95 123.588 147.353 123.976C146.757 124.363 145.747 124.857 143.952 125.466L88.0844 125.446C35.9783 125.427 32.1588 125.408 31.3482 125.18C30.8706 125.043 29.9906 124.683 29.3943 124.376C28.5968 123.966 28.0208 123.517 27.2233 122.688C26.6255 122.065 25.9106 121.134 25.6327 120.616C25.3562 120.097 24.896 119.153 24.6123 118.516C24.1289 117.433 24.0435 117.33 23.2923 116.923C22.8509 116.684 22.0071 116.12 21.4194 115.668C20.8304 115.218 20.1212 114.63 19.8418 114.362C19.5625 114.095 19.0964 113.584 18.8055 113.228C18.5146 112.872 17.9878 111.961 17.6346 111.204C17.2815 110.447 16.7879 109.21 16.539 108.453C16.2886 107.695 15.8833 106.392 15.6373 105.557C15.3912 104.721 15.1032 103.744 14.9961 103.385C14.8904 103.026 14.6082 102.082 14.3708 101.285C14.132 100.489 13.6993 99.0236 13.4069 98.0274C13.116 97.0326 12.6557 95.5007 12.3865 94.6247C12.1159 93.7487 11.4284 91.4681 10.8581 89.5568C10.2864 87.6455 9.24866 84.1921 8.54959 81.8826C7.85052 79.5731 6.94593 76.6091 6.53778 75.2944C6.12962 73.9811 5.47397 71.8627 5.08174 70.5885C4.68806 69.3143 3.93544 66.8701 3.40861 65.1586C2.88177 63.4471 2.32165 61.6212 2.16533 61.1043C2.00902 60.5874 1.78179 59.8373 1.66021 59.4392C1.53863 59.041 1.17679 57.7711 0.856929 56.6156C0.361935 54.8317 0.270752 54.2873 0.253384 52.9957C0.237463 51.8431 0.298251 51.2828 0.503775 50.679C0.6543 50.2417 0.95969 49.5235 1.18258 49.0862C1.40547 48.6489 1.99889 47.841 2.50112 47.2922C3.00335 46.742 3.88768 45.9601 4.46662 45.5546C5.04556 45.1478 5.52463 44.7496 5.53187 44.6699C5.53911 44.5903 5.53332 43.5145 5.51884 42.2808C5.50437 41.0471 5.5695 39.5485 5.66358 38.9505C5.75766 38.3539 5.9791 37.4735 6.15568 36.9957C6.33225 36.5179 6.76356 35.7027 7.11238 35.1858C7.46119 34.6688 8.00973 33.997 8.33104 33.6944C8.65091 33.3903 9.20814 32.9385 9.56563 32.688C9.92313 32.4375 10.6396 32.0393 11.1577 31.8033C11.6759 31.5659 12.718 31.1937 13.4735 30.9765C14.229 30.7593 15.5316 30.3713 16.3682 30.1135C17.2047 29.8573 18.5074 29.4649 19.2629 29.2433C20.0184 29.0203 21.8102 28.4701 23.2431 28.0198C24.676 27.568 26.598 26.9802 27.5128 26.7108C28.4275 26.4401 30.9039 25.6929 33.0127 25.0471C35.1215 24.4028 37.4995 23.6875 38.2955 23.4587C39.0916 23.2299 40.5244 22.8042 41.4797 22.5117C42.4349 22.2207 43.9662 21.7559 44.881 21.4779C45.7957 21.2013 47.2619 20.7525 48.1375 20.4817C49.0132 20.2109 50.5112 19.7649 51.4664 19.4913C52.4217 19.2162 54.1802 18.6906 55.3743 18.3228C56.5683 17.9535 58.1966 17.4526 58.9926 17.2078C59.7887 16.9631 60.7323 16.6793 61.0913 16.5765C61.4502 16.4737 62.1015 16.2811 62.5386 16.1479C62.9757 16.0162 63.5301 15.854 63.7689 15.7903C64.0077 15.7251 66.0586 15.1054 68.328 14.4133C70.5975 13.7211 73.1043 12.9711 73.9003 12.7452C74.6964 12.5179 76.096 12.098 77.0121 11.8098C77.9283 11.5217 79.4249 11.0598 80.341 10.7847C81.2572 10.5096 82.5598 10.1143 83.2357 9.90576C83.9117 9.69726 84.8886 9.39898 85.4068 9.24115C85.9249 9.08477 87.1942 8.7083 88.2291 8.40712C89.264 8.1045 90.6968 7.68024 91.4133 7.46305C92.1297 7.2473 93.2036 6.92296 93.8014 6.74341C94.3977 6.56386 95.9941 6.08169 97.3474 5.67192C98.7007 5.26215 101.339 4.46432 103.209 3.89961C105.079 3.33491 108.142 2.42703 110.012 1.88405Z" fill="#315288"/>
<path d="M113.702 8.8053C114.26 8.64602 115.106 8.43027 115.584 8.32457C116.062 8.21887 116.549 8.12765 116.669 8.1233C116.79 8.11751 117.342 8.21018 117.9 8.32892C118.457 8.44765 119.205 8.65471 119.564 8.78792C119.923 8.92258 120.557 9.24692 120.975 9.5119C121.394 9.77543 122.036 10.2677 122.404 10.6066C122.77 10.9454 123.323 11.6448 123.63 12.1631C123.937 12.6815 124.353 13.5271 124.556 14.0455C124.76 14.5638 125.122 15.7034 125.361 16.5794C125.601 17.4554 126.031 18.9859 126.316 19.9821C126.603 20.9769 127.092 22.671 127.404 23.7468C127.717 24.8227 128.13 26.2229 128.319 26.86C128.51 27.4971 129.196 29.7457 129.843 31.8554C130.49 33.9651 131.182 36.279 131.38 36.9957C131.579 37.7124 131.786 38.3553 131.841 38.4234C131.894 38.4929 131.842 38.6058 131.722 38.6753C131.6 38.7463 118.596 38.7941 102.051 38.7868C85.8525 38.7781 72.1736 38.7275 70.7161 38.5769L72.0187 38.17C72.7351 37.947 73.8424 37.5821 74.4792 37.3591C75.116 37.1376 77.2986 36.4527 79.3278 35.8359C81.357 35.219 83.3109 34.6341 83.6699 34.5342C84.0288 34.4343 85.8843 33.8594 87.7948 33.2556C89.7053 32.6533 92.1484 31.8902 93.2224 31.56C94.2286 31.2521 96.4367 30.5793 98.2826 30.0169L98.6499 29.905C100.56 29.3229 103.296 28.473 104.729 28.0169C106.162 27.5593 107.952 27.0048 108.709 26.7832C109.466 26.5631 111.028 26.0896 112.183 25.732C113.338 25.3743 114.461 25.0095 114.679 24.9211C114.898 24.8328 115.313 24.549 115.603 24.2898C115.891 24.0306 116.26 23.5586 116.422 23.24C116.639 22.8129 116.719 22.3756 116.722 21.5749C116.724 20.7278 116.648 20.3181 116.371 19.707C116.177 19.277 115.774 18.7065 115.475 18.44C115.144 18.1432 114.608 17.8652 114.1 17.7262C113.614 17.5915 113.087 17.5365 112.834 17.593C112.595 17.6466 111.293 18.039 109.939 18.4632C108.586 18.8889 106.794 19.4449 105.959 19.6983C105.124 19.9517 103.397 20.4817 102.124 20.877C100.85 21.2723 99.6124 21.6516 99.3736 21.7211C99.1348 21.7892 98.1911 22.073 97.275 22.351C96.3588 22.629 94.6003 23.1604 93.3671 23.5311C92.134 23.9032 90.5375 24.3926 89.8211 24.6214C89.1047 24.8502 88.0626 25.1658 87.5053 25.3237C86.9481 25.48 84.9942 26.0723 83.1633 26.637C81.3324 27.2031 79.5739 27.7533 79.2555 27.8619C78.937 27.9691 78.2857 28.1675 77.8081 28.3007C77.3305 28.4353 76.0597 28.8263 74.9858 29.1709C73.9118 29.5155 72.2503 30.0353 71.295 30.3249C70.3398 30.6145 69.069 31.0084 68.4727 31.1995C67.8764 31.3921 65.8892 32.0017 64.0583 32.5562C62.2274 33.1094 59.8508 33.8247 58.7755 34.1461C57.7001 34.4661 55.943 34.999 54.8676 35.3276C53.7922 35.6578 52.3608 36.0922 51.6834 36.2963C51.0061 36.499 49.7686 36.8567 48.9335 37.0898C48.0984 37.3229 46.3225 37.8051 42.5651 38.8057L37.3185 38.8071C34.3471 38.8071 31.6637 38.8737 31.1311 38.9606C30.6144 39.0446 29.7995 39.2878 29.3219 39.5007C28.8443 39.715 28.096 40.1827 27.6574 40.5389C27.2189 40.8965 26.666 41.4134 26.4272 41.6886C26.1884 41.9637 25.9235 42.3228 25.8381 42.4878C25.7542 42.6529 25.5588 43.1047 25.4039 43.4942C25.2505 43.8822 25.0102 44.2572 24.8713 44.3267C24.7323 44.3962 24.4718 44.4513 24.2924 44.4513C24.1129 44.4498 23.6729 44.5468 23.3154 44.6656C22.9579 44.7857 22.4455 45.0956 22.1763 45.3548C21.9086 45.6154 21.5916 46.0238 21.4715 46.2627C21.3513 46.5016 21.2196 47.0228 21.1791 47.421C21.127 47.9104 21.1907 48.4201 21.373 48.9935C21.5554 49.564 21.5974 49.9028 21.5033 50.0245C21.4252 50.1244 20.8737 50.7716 20.276 51.4638C19.6796 52.1559 18.9704 53.126 18.7012 53.6183C18.432 54.1121 18.1585 54.6782 18.0934 54.8781C18.0282 55.0764 17.9066 55.5166 17.8227 55.8554C17.7388 56.1942 17.6215 56.4723 17.5622 56.4752C17.5028 56.4781 17.332 56.103 17.1844 55.6426C17.0368 55.1821 16.6663 53.9919 16.3609 52.9957C16.0569 52.0009 15.6647 50.6326 15.4896 49.955C15.3087 49.2556 15.2015 48.5056 15.2435 48.2174C15.2826 47.938 15.5779 47.1575 15.8992 46.4799C16.2205 45.8022 16.6214 44.793 16.7907 44.2355C16.9963 43.555 17.1439 42.498 17.2394 41.0138C17.3176 39.799 17.4478 38.6594 17.5289 38.4799C17.6099 38.3003 17.8545 38.0484 18.0716 37.9195C18.2887 37.7906 19.5421 37.3548 20.8549 36.9523C22.1676 36.5483 24.8395 35.7273 26.789 35.1278C28.7386 34.5269 32.289 33.4424 34.6771 32.7184C37.0652 31.993 39.6704 31.2024 40.4665 30.9591C41.2625 30.7159 42.5319 30.338 43.2888 30.1193C44.0458 29.9007 45.5105 29.4562 46.5454 29.1333C47.5802 28.8089 53.442 27.0366 59.5715 25.1948C65.701 23.353 71.5628 21.5836 72.5976 21.2636C73.6325 20.9436 74.8049 20.5932 75.2029 20.4846C75.6009 20.3774 76.5779 20.0835 77.3739 19.8315C78.1699 19.5796 79.1136 19.2886 79.4726 19.1829C79.8315 19.0786 80.6116 18.8527 81.2094 18.6819C81.8057 18.511 83.3051 18.0578 84.5383 17.6726C85.7714 17.2889 87.5951 16.7329 88.5909 16.4361C89.5852 16.1407 91.2467 15.6411 92.2816 15.3284C93.3165 15.0156 94.5858 14.6362 95.1039 14.4857C95.6221 14.3351 96.696 14.0136 97.4921 13.7718L97.8468 13.6634C98.8772 13.3486 101.03 12.6909 102.992 12.0893C105.221 11.4073 108.314 10.4545 109.867 9.97091C111.42 9.48873 113.145 8.96312 113.702 8.8053Z" fill="#FCFDFD"/>
<path d="M35.929 47.2516C36.1158 47.0793 36.4964 46.8737 36.7757 46.7941C37.1043 46.7014 50.7079 46.6464 75.4562 46.6377C111.682 46.6247 113.636 46.6377 113.739 46.8781C113.798 47.0171 113.847 62.8998 113.847 82.1722C113.847 101.445 113.798 117.327 113.739 117.466C113.636 117.707 111.679 117.72 75.5647 117.72C40.5157 117.72 37.4502 117.701 36.8843 117.481C36.5456 117.349 36.1389 117.125 35.9797 116.983C35.8205 116.841 35.5122 116.379 35.2966 115.956C35.0143 115.406 34.8406 114.73 34.6872 113.593C34.57 112.717 34.3963 111.771 34.3008 111.493C34.2067 111.215 33.8535 110.564 33.5178 110.045C33.1805 109.527 32.5857 108.844 32.1949 108.525C31.8027 108.207 30.736 107.61 29.8227 107.199C28.9108 106.788 27.6502 106.234 27.0221 105.968C26.3085 105.665 25.7658 105.331 25.2693 104.666L25.2259 83.067C25.2013 71.1865 25.2259 60.9769 25.2794 60.3803C25.3663 59.4189 25.4285 59.2437 25.8294 58.8498C26.1667 58.5197 26.7282 58.2648 28.0193 57.8536C28.9745 57.5495 30.212 57.0963 30.7692 56.8458C31.4017 56.562 32.0979 56.0929 32.6204 55.5977C33.1921 55.059 33.6162 54.4813 33.9476 53.7921C34.2168 53.2346 34.5034 52.4194 34.5874 51.9821C34.6713 51.5434 34.7813 50.6312 34.832 49.955C34.9 49.0616 35.0172 48.5649 35.2575 48.145C35.4413 47.8265 35.7423 47.4239 35.929 47.2516Z" fill="#FCFDFD"/>
<path d="M121.511 82.3257C121.506 63.0576 121.553 47.1416 121.616 46.9591L121.729 46.6247L130.525 46.6261C135.458 46.6261 139.543 46.6855 139.827 46.7608C140.117 46.8375 140.546 47.1314 140.829 47.4471C141.101 47.7512 141.416 48.2276 141.531 48.507C141.645 48.7865 141.768 49.4699 141.804 50.0274C141.84 50.5848 141.971 51.5289 142.092 52.1269C142.215 52.7235 142.502 53.5387 142.728 53.9369C142.953 54.3351 143.419 54.9316 143.762 55.2632C144.105 55.5948 144.712 56.0552 145.11 56.2855C145.508 56.5157 146.256 56.8733 146.774 57.0775C147.292 57.2831 148.236 57.5944 148.873 57.7696C149.51 57.9448 150.226 58.2257 150.465 58.3952C150.704 58.5631 150.947 58.7702 151.005 58.8527C151.064 58.9367 151.113 69.349 151.116 104.978L150.71 105.303C150.487 105.483 149.917 105.806 149.443 106.022C148.971 106.237 147.9 106.683 147.064 107.013C146.229 107.342 145.255 107.785 144.9 107.997C144.545 108.208 144.007 108.625 143.706 108.923C143.403 109.222 142.979 109.776 142.764 110.154C142.547 110.532 142.26 111.134 142.125 111.493C141.992 111.853 141.806 112.797 141.713 113.593C141.62 114.389 141.467 115.294 141.373 115.604C141.279 115.916 140.991 116.419 140.732 116.726C140.389 117.135 140.057 117.345 139.501 117.504C138.862 117.688 137.393 117.723 130.238 117.721C123.592 117.72 121.712 117.681 121.627 117.539C121.567 117.439 121.515 101.594 121.511 82.3257Z" fill="#FCFDFD"/>
<path d="M8.4019 53.5387C8.48584 53.32 8.79413 52.848 9.08794 52.4889C9.38175 52.1313 9.6582 51.8344 9.70307 51.8315C9.74793 51.8286 9.85793 51.9097 9.94912 52.0125C10.0417 52.1153 10.282 52.7539 10.4832 53.4301C10.6858 54.1077 11.3111 56.1928 11.8726 58.0636C12.4328 59.9358 13.0841 62.086 13.3185 62.8419C13.553 63.5991 13.841 64.5432 13.9583 64.9414C14.0755 65.3396 14.2029 65.7957 14.242 65.955C14.281 66.1143 14.8006 67.8417 15.3984 69.7921C15.9947 71.7439 16.646 73.8942 16.8457 74.5704C17.0701 75.3305 17.2409 76.3557 17.2944 77.2491C17.3407 78.0455 17.3957 79.6542 17.416 80.8212C17.4377 81.9897 17.4073 83.0004 17.3494 83.0656C17.2915 83.1322 17.1873 83.0236 17.1178 82.8238C17.0469 82.6254 16.8226 81.9405 16.6171 81.3034C16.413 80.6663 15.8543 78.907 15.3752 77.3939C14.8962 75.8808 14.2651 73.8609 13.9713 72.9052C13.6775 71.9495 13.2563 70.5494 13.0334 69.7921C12.8105 69.0362 12.4516 67.8301 12.2359 67.1133L12.1506 66.8297C11.9397 66.1286 11.6633 65.2097 11.4934 64.6518C11.3009 64.0147 10.9594 62.8752 10.735 62.1179C10.5107 61.362 10.0649 59.8952 9.74649 58.86C9.42662 57.8247 8.95913 56.2942 8.70874 55.4572C8.33677 54.2236 8.28032 53.863 8.4019 53.5387Z" fill="#FCFDFD"/>
<path d="M93.2948 54.9258C93.5336 54.7622 93.9244 54.5566 94.1632 54.4682C94.402 54.3785 94.9231 54.3234 95.3211 54.3466C95.7191 54.3683 96.3371 54.5291 96.6961 54.7043C97.055 54.8795 98.2621 55.7873 99.3809 56.7242C100.5 57.6595 101.701 58.6529 102.053 58.9323C102.403 59.2103 103.117 59.8025 103.638 60.2456C104.159 60.6901 104.749 61.2433 104.952 61.4764C105.154 61.7095 105.438 62.2597 105.584 62.697C105.777 63.2805 105.823 63.7062 105.755 64.2898C105.697 64.7821 105.508 65.3352 105.257 65.7377C105.034 66.0968 104.568 66.5848 104.221 66.8237C103.801 67.1119 103.365 67.2755 102.928 67.3073C102.514 67.3392 101.972 67.248 101.472 67.0641C100.973 66.8816 100.365 66.4849 99.8397 66.0013C99.378 65.5785 98.9554 65.2845 98.899 65.3511C98.8411 65.4177 98.7788 67.3406 98.76 69.6226C98.7282 73.4453 98.7021 73.8087 98.4445 74.2083C98.2911 74.4472 98.0146 74.7861 97.8294 74.9598C97.6441 75.135 97.2475 75.3797 96.9494 75.5028C96.6252 75.6375 95.9825 75.7272 95.3573 75.7258C94.7798 75.7243 94.0561 75.6433 93.7493 75.5448C93.441 75.4478 92.959 75.1712 92.6782 74.9323C92.3975 74.6934 92.0631 74.3024 91.9357 74.0635C91.7433 73.7044 91.6897 72.9298 91.6304 69.6226C91.5913 67.4188 91.5088 65.5785 91.4494 65.5321C91.3901 65.4858 90.9993 65.7189 90.581 66.0491C90.1627 66.3792 89.5606 66.7687 89.2422 66.9135C88.9238 67.0597 88.3376 67.1814 87.9396 67.1843C87.4692 67.1872 86.9902 67.0742 86.569 66.8614C86.1666 66.6586 85.7281 66.2605 85.4111 65.8145C84.9291 65.1354 84.9002 65.0311 84.9002 63.9321C84.9002 62.8954 84.9479 62.6912 85.3344 62.0541C85.5891 61.6342 86.3649 60.8262 87.2116 60.0994C88.0062 59.4174 88.7878 58.7499 88.9484 58.6152C89.1105 58.4805 89.413 58.2199 89.6214 58.036C89.8299 57.8521 90.6433 57.1441 91.4306 56.4606C92.2165 55.7786 93.056 55.088 93.2948 54.9258Z" fill="#315288"/>
<path d="M65.5057 58.4458C66.2221 58.2474 67.0355 58.0563 67.3149 58.0244C67.5942 57.9911 68.3425 57.994 68.9793 58.0288C69.6162 58.065 70.6583 58.2185 71.2951 58.3719C71.9319 58.5269 72.9422 58.8932 73.5385 59.1886C74.1362 59.484 74.9829 60.0139 75.42 60.3658C75.8571 60.7176 76.5316 61.3374 76.9181 61.7428C77.3045 62.1482 77.798 62.7405 78.0151 63.059C78.2322 63.3776 78.6129 64.061 78.8604 64.5794C79.1064 65.0963 79.4451 66.0737 79.6101 66.7513C79.82 67.6143 79.9097 68.4483 79.9083 69.5386C79.9083 70.4653 79.8128 71.4905 79.6724 72.0726C79.5435 72.6098 79.1614 73.6364 78.8213 74.3531C78.4812 75.0699 77.8863 76.0748 77.4984 76.5859C77.112 77.097 76.5027 77.7718 76.1437 78.086C75.7848 78.4016 75.1016 78.9243 74.624 79.2516C74.1464 79.5774 73.2997 80.0277 72.7424 80.2521C72.1852 80.478 71.2575 80.7575 70.68 80.8733C70.1025 80.9906 69.1096 81.0862 68.4728 81.0862C67.8359 81.0862 66.843 80.9848 66.2656 80.8603C65.6881 80.7372 64.6301 80.352 63.9136 80.0045C63.1972 79.6585 62.1869 79.0547 61.6702 78.6623C61.1535 78.2699 60.4443 77.6284 60.0941 77.2375C59.7452 76.8451 59.1909 76.1023 58.8624 75.5839C58.5338 75.0655 58.1864 74.4791 58.0909 74.2807C57.994 74.0809 57.7899 73.5929 57.6379 73.1948C57.4859 72.7966 57.279 71.9495 57.1776 71.3124C57.0648 70.6014 57.0257 69.5676 57.0763 68.6337C57.127 67.691 57.2775 66.7281 57.4729 66.0997C57.6451 65.5423 58.0909 64.5403 58.4629 63.8742C58.8812 63.1213 59.5224 62.2699 60.1505 61.6299C60.7092 61.0623 61.4575 60.3933 61.815 60.1443C62.1739 59.8938 62.857 59.4927 63.3347 59.2494C63.8123 59.0076 64.7893 58.6456 65.5057 58.4458Z" fill="#315288"/>
<path d="M137.258 59.5651C137.477 59.4565 137.901 59.3044 138.199 59.2277C138.497 59.151 139.132 59.122 139.61 59.1611C140.088 59.2002 140.739 59.3493 141.057 59.4927C141.376 59.636 141.848 59.9922 142.107 60.2833C142.366 60.5757 142.642 60.9768 142.722 61.1767C142.801 61.375 142.868 62.3365 142.869 63.3124C142.871 64.2883 142.796 65.3135 142.704 65.5929C142.612 65.871 142.383 66.3111 142.195 66.5703C142.007 66.8295 141.544 67.2132 141.166 67.4246C140.533 67.7779 140.374 67.804 139.176 67.7504C138.222 67.7084 137.718 67.6114 137.294 67.3899C136.976 67.2234 136.52 66.8107 136.281 66.4733C135.856 65.871 135.845 65.8203 135.801 63.8076C135.775 62.6796 135.79 61.5444 135.837 61.2853C135.882 61.0261 136.131 60.5786 136.39 60.2891C136.649 60.0009 137.04 59.6751 137.258 59.5651Z" fill="#315288"/>
<path d="M136.969 80.4418C137.228 80.2463 137.7 80.0248 138.018 79.9495C138.336 79.8742 138.841 79.8062 139.14 79.7975C139.438 79.7902 140.024 79.8583 140.442 79.951C141.034 80.0813 141.35 80.2652 141.868 80.7835C142.273 81.1875 142.599 81.6755 142.7 82.0273C142.791 82.3459 142.864 83.3884 142.862 84.3441C142.861 85.7269 142.806 86.2004 142.592 86.6608C142.445 86.9794 142.137 87.4152 141.908 87.631C141.678 87.8453 141.247 88.1218 140.949 88.2463C140.651 88.3694 139.999 88.4693 139.501 88.4679C139.004 88.465 138.336 88.4013 138.018 88.3245C137.7 88.2478 137.229 88.0364 136.971 87.8568C136.715 87.6773 136.325 87.2038 136.103 86.8056C135.718 86.1106 135.702 86.0005 135.702 84.0443C135.702 82.065 135.714 81.9897 136.1 81.4018C136.319 81.0688 136.71 80.6373 136.969 80.4418Z" fill="#315288"/>
<path d="M45.1053 88.7604C45.2529 88.6402 45.6046 88.4635 45.8869 88.368C46.2834 88.2319 52.8718 88.2 103.159 88.2536L103.693 88.6156C103.986 88.8139 104.405 89.2324 104.623 89.5452C105.004 90.091 105.018 90.1823 105.018 91.9575C105.018 93.7732 105.011 93.8138 104.584 94.432C104.292 94.8534 103.889 95.1879 102.558 95.8467L74.624 95.8496C57.3687 95.8525 46.4962 95.8004 46.1836 95.7164C45.9042 95.6396 45.4483 95.4282 45.1704 95.2443C44.8911 95.0605 44.5336 94.6507 44.3744 94.3336C44.1312 93.8485 44.0849 93.4662 44.0849 91.9459C44.0849 90.2416 44.1066 90.1026 44.4612 89.5567C44.6682 89.2382 44.9591 88.8805 45.1053 88.7604Z" fill="#315288"/>
<path d="M136.841 99.998C137.189 99.7186 137.71 99.4825 138.216 99.3754C138.663 99.2813 139.292 99.2378 139.61 99.2784C139.928 99.3204 140.434 99.413 140.732 99.4869C141.04 99.5622 141.56 99.8851 141.934 100.235C142.328 100.602 142.649 101.055 142.729 101.358C142.804 101.636 142.864 102.678 142.864 103.674C142.862 105.258 142.822 105.564 142.539 106.126C142.361 106.479 141.955 106.984 141.636 107.247C141.318 107.51 140.781 107.791 140.442 107.872C140.104 107.952 139.535 108.018 139.176 108.018C138.817 108.018 138.218 107.937 137.843 107.837C137.39 107.717 136.966 107.459 136.576 107.07C136.228 106.721 135.913 106.224 135.798 105.839C135.663 105.395 135.618 104.611 135.656 103.312C135.699 101.763 135.759 101.343 135.995 100.939C136.152 100.668 136.533 100.244 136.841 99.998Z" fill="#315288"/>
<path d="M44.3744 104.49C44.6971 103.967 44.9953 103.696 45.5323 103.441L46.2559 103.097L103.329 103.168L103.943 103.602C104.28 103.841 104.693 104.22 104.861 104.445C105.12 104.795 105.17 105.104 105.215 106.617C105.26 108.111 105.225 108.48 104.991 109.032C104.837 109.39 104.489 109.856 104.215 110.067C103.94 110.279 103.455 110.526 103.137 110.617C102.71 110.739 95.1778 110.771 46.1112 110.697L45.4657 110.335C45.0532 110.103 44.6624 109.717 44.3802 109.261C43.9561 108.574 43.9402 108.486 43.9402 106.871C43.9402 105.261 43.9576 105.167 44.3744 104.49Z" fill="#315288"/>
<path d="M66.3843 66.1762C66.6969 65.9793 67.1804 65.7389 67.4597 65.6405C67.739 65.5406 68.1617 65.4566 68.4005 65.4508C68.6393 65.4465 69.2588 65.5681 69.7755 65.723C70.5556 65.9561 70.8407 66.1357 71.4443 66.7757C72.042 67.4113 72.2186 67.727 72.4429 68.561C72.6745 69.4168 72.6904 69.6875 72.5515 70.2986C72.4603 70.6968 72.236 71.2513 72.0507 71.5293C71.8669 71.8088 71.3936 72.2779 70.9985 72.5748C70.5961 72.8774 69.9651 73.1873 69.5584 73.2828C69.143 73.3798 68.4801 73.4117 68.0025 73.3596C67.5451 73.3089 66.9256 73.1453 66.6275 72.9976C66.3293 72.8499 65.8575 72.4691 65.5781 72.1505C65.2988 71.8334 64.9254 71.205 64.7459 70.7547C64.5664 70.3044 64.4188 69.757 64.4174 69.5384C64.4159 69.3198 64.5303 68.7884 64.6707 68.3583C64.8111 67.9283 65.1266 67.3418 65.3712 67.0551C65.6158 66.7684 66.0717 66.3731 66.3843 66.1762Z" fill="#FCFDFD"/>
</svg>
