<svg width="164" height="128" viewBox="0 0 164 128" fill="none" xmlns="http://www.w3.org/2000/svg">
<path d="M0 128V64V0H163.84V128H0Z" fill="#FBFCFC"/>
<path d="M111.012 1.88405C112.882 1.34106 114.705 0.831376 115.064 0.753186C115.423 0.674996 116.464 0.604046 117.38 0.598254C118.296 0.591014 119.5 0.650381 120.058 0.730019C120.615 0.811105 121.493 0.980517 122.012 1.10939C122.53 1.23825 123.44 1.53943 124.038 1.77834C124.634 2.01871 125.416 2.3778 125.775 2.57762C126.134 2.77744 126.817 3.20169 127.294 3.52025C127.772 3.8388 128.68 4.62794 129.312 5.27228C129.945 5.91663 130.797 6.96495 131.208 7.60205C131.619 8.23916 132.085 9.02106 132.246 9.33961C132.405 9.65816 132.738 10.4719 132.984 11.1496C133.229 11.8258 133.955 14.1715 134.596 16.3622C135.237 18.5516 135.854 20.6366 135.968 20.9957C136.081 21.3534 136.319 22.1686 136.494 22.8057C136.669 23.4428 136.896 24.2247 136.996 24.5432C137.097 24.8618 137.487 26.1649 137.86 27.4392C138.235 28.7134 139.089 31.5803 139.758 33.8102C140.426 36.0401 140.973 37.9789 140.972 38.1179C140.972 38.2569 141.069 38.4697 141.189 38.5885C141.37 38.7695 141.724 38.7897 143.324 38.713C144.635 38.6507 145.585 38.6797 146.327 38.8086C146.973 38.9201 147.822 39.2039 148.426 39.5094C149.025 39.812 149.765 40.3507 150.235 40.8256C150.673 41.2672 151.145 41.7754 151.284 41.955C151.423 42.1345 151.791 42.7528 152.099 43.3306C152.407 43.9083 152.944 45.2868 153.926 48.41L154.866 49.0906C155.385 49.4656 156.252 50.2533 156.796 50.8411C157.34 51.429 158.003 52.3007 158.269 52.7785C158.535 53.2563 158.913 54.0716 159.109 54.5885C159.304 55.1054 159.572 56.1479 159.703 56.9052C159.923 58.1592 159.941 60.486 159.86 108.38L159.52 109.394C159.333 109.951 158.893 110.962 158.544 111.638C158.195 112.314 157.502 113.354 157.003 113.948C156.505 114.54 155.803 115.242 155.445 115.507C155.088 115.772 154.565 116.173 154.287 116.398C153.946 116.674 153.48 117.394 152.858 118.603C152.349 119.59 151.689 120.724 151.391 121.122C151.093 121.521 150.533 122.166 150.144 122.559C149.756 122.951 148.95 123.588 148.353 123.976C147.757 124.363 146.747 124.857 144.952 125.466L89.0844 125.446C36.9783 125.427 33.1588 125.408 32.3482 125.18C31.8706 125.043 30.9906 124.683 30.3943 124.376C29.5968 123.966 29.0208 123.517 28.2233 122.688C27.6255 122.065 26.9106 121.134 26.6327 120.616C26.3562 120.097 25.896 119.153 25.6123 118.516C25.1289 117.433 25.0435 117.33 24.2923 116.923C23.8509 116.684 23.0071 116.12 22.4194 115.668C21.8304 115.218 21.1212 114.63 20.8418 114.362C20.5625 114.095 20.0964 113.584 19.8055 113.228C19.5146 112.872 18.9878 111.961 18.6346 111.204C18.2815 110.447 17.7879 109.21 17.539 108.453C17.2886 107.695 16.8833 106.392 16.6373 105.557C16.3912 104.721 16.1032 103.744 15.9961 103.385C15.8904 103.026 15.6082 102.082 15.3708 101.285C15.132 100.489 14.6993 99.0236 14.4069 98.0274C14.116 97.0326 13.6557 95.5007 13.3865 94.6247C13.1159 93.7487 12.4284 91.4681 11.8581 89.5568C11.2864 87.6455 10.2487 84.1921 9.54959 81.8826C8.85052 79.5731 7.94593 76.6091 7.53778 75.2944C7.12962 73.9811 6.47397 71.8627 6.08174 70.5885C5.68806 69.3143 4.93544 66.8701 4.40861 65.1586C3.88177 63.4471 3.32165 61.6212 3.16533 61.1043C3.00902 60.5874 2.78179 59.8373 2.66021 59.4392C2.53863 59.041 2.17679 57.7711 1.85693 56.6156C1.36193 54.8317 1.27075 54.2873 1.25338 52.9957C1.23746 51.8431 1.29825 51.2828 1.50378 50.679C1.6543 50.2417 1.95969 49.5235 2.18258 49.0862C2.40547 48.6489 2.99889 47.841 3.50112 47.2922C4.00335 46.742 4.88768 45.9601 5.46662 45.5546C6.04556 45.1478 6.52463 44.7496 6.53187 44.6699C6.53911 44.5903 6.53332 43.5145 6.51884 42.2808C6.50437 41.0471 6.5695 39.5485 6.66358 38.9505C6.75766 38.3539 6.9791 37.4735 7.15568 36.9957C7.33225 36.5179 7.76356 35.7027 8.11238 35.1858C8.46119 34.6688 9.00973 33.997 9.33104 33.6944C9.65091 33.3903 10.2081 32.9385 10.5656 32.688C10.9231 32.4375 11.6396 32.0393 12.1577 31.8033C12.6759 31.5659 13.718 31.1937 14.4735 30.9765C15.229 30.7593 16.5316 30.3713 17.3682 30.1135C18.2047 29.8573 19.5074 29.4649 20.2629 29.2433C21.0184 29.0203 22.8102 28.4701 24.2431 28.0198C25.676 27.568 27.598 26.9802 28.5128 26.7108C29.4275 26.4401 31.9039 25.6929 34.0127 25.0471C36.1215 24.4028 38.4995 23.6875 39.2955 23.4587C40.0916 23.2299 41.5244 22.8042 42.4797 22.5117C43.4349 22.2207 44.9662 21.7559 45.881 21.4779C46.7957 21.2013 48.2619 20.7525 49.1375 20.4817C50.0132 20.2109 51.5112 19.7649 52.4664 19.4913C53.4217 19.2162 55.1802 18.6906 56.3743 18.3228C57.5683 17.9535 59.1966 17.4526 59.9926 17.2078C60.7887 16.9631 61.7323 16.6793 62.0913 16.5765C62.4502 16.4737 63.1015 16.2811 63.5386 16.1479C63.9757 16.0162 64.5301 15.854 64.7689 15.7903C65.0077 15.7251 67.0586 15.1054 69.328 14.4133C71.5975 13.7211 74.1043 12.9711 74.9003 12.7452C75.6964 12.5179 77.096 12.098 78.0121 11.8098C78.9283 11.5217 80.4249 11.0598 81.341 10.7847C82.2572 10.5096 83.5598 10.1143 84.2357 9.90576C84.9117 9.69726 85.8886 9.39898 86.4068 9.24115C86.9249 9.08477 88.1942 8.7083 89.2291 8.40712C90.264 8.1045 91.6968 7.68024 92.4133 7.46305C93.1297 7.2473 94.2036 6.92296 94.8014 6.74341C95.3977 6.56386 96.9941 6.08169 98.3474 5.67192C99.7007 5.26215 102.339 4.46432 104.209 3.89961C106.079 3.33491 109.142 2.42703 111.012 1.88405Z" fill="#010101"/>
<path d="M114.702 8.8053C115.26 8.64602 116.106 8.43027 116.584 8.32457C117.062 8.21887 117.549 8.12765 117.669 8.1233C117.79 8.11751 118.342 8.21018 118.9 8.32892C119.457 8.44765 120.205 8.65471 120.564 8.78792C120.923 8.92258 121.557 9.24692 121.975 9.5119C122.394 9.77543 123.036 10.2677 123.404 10.6066C123.77 10.9454 124.323 11.6448 124.63 12.1631C124.937 12.6815 125.353 13.5271 125.556 14.0455C125.76 14.5638 126.122 15.7034 126.361 16.5794C126.601 17.4554 127.031 18.9859 127.316 19.9821C127.603 20.9769 128.092 22.671 128.404 23.7468C128.717 24.8227 129.13 26.2229 129.319 26.86C129.51 27.4971 130.196 29.7457 130.843 31.8554C131.49 33.9651 132.182 36.279 132.38 36.9957C132.579 37.7124 132.786 38.3553 132.841 38.4234C132.894 38.4929 132.842 38.6058 132.722 38.6753C132.6 38.7463 119.596 38.7941 103.051 38.7868C86.8525 38.7781 73.1736 38.7275 71.7161 38.5769L73.0187 38.17C73.7351 37.947 74.8424 37.5821 75.4792 37.3591C76.116 37.1376 78.2986 36.4527 80.3278 35.8359C82.357 35.219 84.3109 34.6341 84.6699 34.5342C85.0288 34.4343 86.8843 33.8594 88.7948 33.2556C90.7053 32.6533 93.1484 31.8902 94.2224 31.56C95.2286 31.2521 97.4367 30.5793 99.2826 30.0169L99.6499 29.905C101.56 29.3229 104.296 28.473 105.729 28.0169C107.162 27.5593 108.952 27.0048 109.709 26.7832C110.466 26.5631 112.028 26.0896 113.183 25.732C114.338 25.3743 115.461 25.0095 115.679 24.9211C115.898 24.8328 116.313 24.549 116.603 24.2898C116.891 24.0306 117.26 23.5586 117.422 23.24C117.639 22.8129 117.719 22.3756 117.722 21.5749C117.724 20.7278 117.648 20.3181 117.371 19.707C117.177 19.277 116.774 18.7065 116.475 18.44C116.144 18.1432 115.608 17.8652 115.1 17.7262C114.614 17.5915 114.087 17.5365 113.834 17.593C113.595 17.6466 112.293 18.039 110.939 18.4632C109.586 18.8889 107.794 19.4449 106.959 19.6983C106.124 19.9517 104.397 20.4817 103.124 20.877C101.85 21.2723 100.612 21.6516 100.374 21.7211C100.135 21.7892 99.1911 22.073 98.275 22.351C97.3588 22.629 95.6003 23.1604 94.3671 23.5311C93.134 23.9032 91.5375 24.3926 90.8211 24.6214C90.1047 24.8502 89.0626 25.1658 88.5053 25.3237C87.9481 25.48 85.9942 26.0723 84.1633 26.637C82.3324 27.2031 80.5739 27.7533 80.2555 27.8619C79.937 27.9691 79.2857 28.1675 78.8081 28.3007C78.3305 28.4353 77.0597 28.8263 75.9858 29.1709C74.9118 29.5155 73.2503 30.0353 72.295 30.3249C71.3398 30.6145 70.069 31.0084 69.4727 31.1995C68.8764 31.3921 66.8892 32.0017 65.0583 32.5562C63.2274 33.1094 60.8508 33.8247 59.7755 34.1461C58.7001 34.4661 56.943 34.999 55.8676 35.3276C54.7922 35.6578 53.3608 36.0922 52.6834 36.2963C52.0061 36.499 50.7686 36.8567 49.9335 37.0898C49.0984 37.3229 47.3225 37.8051 43.5651 38.8057L38.3185 38.8071C35.3471 38.8071 32.6637 38.8737 32.1311 38.9606C31.6144 39.0446 30.7995 39.2878 30.3219 39.5007C29.8443 39.715 29.096 40.1827 28.6574 40.5389C28.2189 40.8965 27.666 41.4134 27.4272 41.6886C27.1884 41.9637 26.9235 42.3228 26.8381 42.4878C26.7542 42.6529 26.5588 43.1047 26.4039 43.4942C26.2505 43.8822 26.0102 44.2572 25.8713 44.3267C25.7323 44.3962 25.4718 44.4513 25.2924 44.4513C25.1129 44.4498 24.6729 44.5468 24.3154 44.6656C23.9579 44.7857 23.4455 45.0956 23.1763 45.3548C22.9086 45.6154 22.5916 46.0238 22.4715 46.2627C22.3513 46.5016 22.2196 47.0228 22.1791 47.421C22.127 47.9104 22.1907 48.4201 22.373 48.9935C22.5554 49.564 22.5974 49.9028 22.5033 50.0245C22.4252 50.1244 21.8737 50.7716 21.276 51.4638C20.6796 52.1559 19.9704 53.126 19.7012 53.6183C19.432 54.1121 19.1585 54.6782 19.0934 54.8781C19.0282 55.0764 18.9066 55.5166 18.8227 55.8554C18.7388 56.1942 18.6215 56.4723 18.5622 56.4752C18.5028 56.4781 18.332 56.103 18.1844 55.6426C18.0368 55.1821 17.6663 53.9919 17.3609 52.9957C17.0569 52.0009 16.6647 50.6326 16.4896 49.955C16.3087 49.2556 16.2015 48.5056 16.2435 48.2174C16.2826 47.938 16.5779 47.1575 16.8992 46.4799C17.2205 45.8022 17.6214 44.793 17.7907 44.2355C17.9963 43.555 18.1439 42.498 18.2394 41.0138C18.3176 39.799 18.4478 38.6594 18.5289 38.4799C18.6099 38.3003 18.8545 38.0484 19.0716 37.9195C19.2887 37.7906 20.5421 37.3548 21.8549 36.9523C23.1676 36.5483 25.8395 35.7273 27.789 35.1278C29.7386 34.5269 33.289 33.4424 35.6771 32.7184C38.0652 31.993 40.6704 31.2024 41.4665 30.9591C42.2625 30.7159 43.5319 30.338 44.2888 30.1193C45.0458 29.9007 46.5105 29.4562 47.5454 29.1333C48.5802 28.8089 54.442 27.0366 60.5715 25.1948C66.701 23.353 72.5628 21.5836 73.5976 21.2636C74.6325 20.9436 75.8049 20.5932 76.2029 20.4846C76.6009 20.3774 77.5779 20.0835 78.3739 19.8315C79.1699 19.5796 80.1136 19.2886 80.4726 19.1829C80.8315 19.0786 81.6116 18.8527 82.2094 18.6819C82.8057 18.511 84.3051 18.0578 85.5383 17.6726C86.7714 17.2889 88.5951 16.7329 89.5909 16.4361C90.5852 16.1407 92.2467 15.6411 93.2816 15.3284C94.3165 15.0156 95.5858 14.6362 96.1039 14.4857C96.6221 14.3351 97.696 14.0136 98.4921 13.7718L98.8468 13.6634C99.8772 13.3486 102.03 12.6909 103.992 12.0893C106.221 11.4073 109.314 10.4545 110.867 9.97091C112.42 9.48873 114.145 8.96312 114.702 8.8053Z" fill="#FBFCFC"/>
<path d="M36.929 47.2516C37.1158 47.0793 37.4964 46.8737 37.7757 46.7941C38.1043 46.7014 51.7079 46.6464 76.4562 46.6377C112.682 46.6247 114.636 46.6377 114.739 46.8781C114.798 47.0171 114.847 62.8998 114.847 82.1722C114.847 101.445 114.798 117.327 114.739 117.466C114.636 117.707 112.679 117.72 76.5647 117.72C41.5157 117.72 38.4502 117.701 37.8843 117.481C37.5456 117.349 37.1389 117.125 36.9797 116.983C36.8205 116.841 36.5122 116.379 36.2966 115.956C36.0143 115.406 35.8406 114.73 35.6872 113.593C35.57 112.717 35.3963 111.771 35.3008 111.493C35.2067 111.215 34.8535 110.564 34.5178 110.045C34.1805 109.527 33.5857 108.844 33.1949 108.525C32.8027 108.207 31.736 107.61 30.8227 107.199C29.9108 106.788 28.6502 106.234 28.0221 105.968C27.3085 105.665 26.7658 105.331 26.2693 104.666L26.2259 83.067C26.2013 71.1865 26.2259 60.9769 26.2794 60.3803C26.3663 59.4189 26.4285 59.2437 26.8294 58.8498C27.1667 58.5197 27.7282 58.2648 29.0193 57.8536C29.9745 57.5495 31.212 57.0963 31.7692 56.8458C32.4017 56.562 33.0979 56.0929 33.6204 55.5977C34.1921 55.059 34.6162 54.4813 34.9476 53.7921C35.2168 53.2346 35.5034 52.4194 35.5874 51.9821C35.6713 51.5434 35.7813 50.6312 35.832 49.955C35.9 49.0616 36.0172 48.5649 36.2575 48.145C36.4413 47.8265 36.7423 47.4239 36.929 47.2516Z" fill="#FBFCFC"/>
<path d="M122.511 82.3257C122.506 63.0576 122.553 47.1416 122.616 46.9591L122.729 46.6247L131.525 46.6261C136.458 46.6261 140.543 46.6855 140.827 46.7608C141.117 46.8375 141.546 47.1314 141.829 47.4471C142.101 47.7512 142.416 48.2276 142.531 48.507C142.645 48.7865 142.768 49.4699 142.804 50.0274C142.84 50.5848 142.971 51.5289 143.092 52.1269C143.215 52.7235 143.502 53.5387 143.728 53.9369C143.953 54.3351 144.419 54.9316 144.762 55.2632C145.105 55.5948 145.712 56.0552 146.11 56.2855C146.508 56.5157 147.256 56.8733 147.774 57.0775C148.292 57.2831 149.236 57.5944 149.873 57.7696C150.51 57.9448 151.226 58.2257 151.465 58.3952C151.704 58.5631 151.947 58.7702 152.005 58.8527C152.064 58.9367 152.113 69.349 152.116 104.978L151.71 105.303C151.487 105.483 150.917 105.806 150.443 106.022C149.971 106.237 148.9 106.683 148.064 107.013C147.229 107.342 146.255 107.785 145.9 107.997C145.545 108.208 145.007 108.625 144.706 108.923C144.403 109.222 143.979 109.776 143.764 110.154C143.547 110.532 143.26 111.134 143.125 111.493C142.992 111.853 142.806 112.797 142.713 113.593C142.62 114.389 142.467 115.294 142.373 115.604C142.279 115.916 141.991 116.419 141.732 116.726C141.389 117.135 141.057 117.345 140.501 117.504C139.862 117.688 138.393 117.723 131.238 117.721C124.592 117.72 122.712 117.681 122.627 117.539C122.567 117.439 122.515 101.594 122.511 82.3257Z" fill="#FBFCFC"/>
<path d="M9.4019 53.5387C9.48584 53.32 9.79413 52.848 10.0879 52.4889C10.3818 52.1313 10.6582 51.8344 10.7031 51.8315C10.7479 51.8286 10.8579 51.9097 10.9491 52.0125C11.0417 52.1153 11.282 52.7539 11.4832 53.4301C11.6858 54.1077 12.3111 56.1928 12.8726 58.0636C13.4328 59.9358 14.0841 62.086 14.3185 62.8419C14.553 63.5991 14.841 64.5432 14.9583 64.9414C15.0755 65.3396 15.2029 65.7957 15.242 65.955C15.281 66.1143 15.8006 67.8417 16.3984 69.7921C16.9947 71.7439 17.646 73.8942 17.8457 74.5704C18.0701 75.3305 18.2409 76.3557 18.2944 77.2491C18.3407 78.0455 18.3957 79.6542 18.416 80.8212C18.4377 81.9897 18.4073 83.0004 18.3494 83.0656C18.2915 83.1322 18.1873 83.0236 18.1178 82.8238C18.0469 82.6254 17.8226 81.9405 17.6171 81.3034C17.413 80.6663 16.8543 78.907 16.3752 77.3939C15.8962 75.8808 15.2651 73.8609 14.9713 72.9052C14.6775 71.9495 14.2563 70.5494 14.0334 69.7921C13.8105 69.0362 13.4516 67.8301 13.2359 67.1133L13.1506 66.8297C12.9397 66.1286 12.6633 65.2097 12.4934 64.6518C12.3009 64.0147 11.9594 62.8752 11.735 62.1179C11.5107 61.362 11.0649 59.8952 10.7465 58.86C10.4266 57.8247 9.95913 56.2942 9.70874 55.4572C9.33677 54.2236 9.28032 53.863 9.4019 53.5387Z" fill="#FBFCFC"/>
<path d="M94.2948 54.9258C94.5336 54.7622 94.9244 54.5566 95.1632 54.4682C95.402 54.3785 95.9231 54.3234 96.3211 54.3466C96.7191 54.3683 97.3371 54.5291 97.6961 54.7043C98.055 54.8795 99.2621 55.7873 100.381 56.7242C101.5 57.6595 102.701 58.6529 103.053 58.9323C103.403 59.2103 104.117 59.8025 104.638 60.2456C105.159 60.6901 105.749 61.2433 105.952 61.4764C106.154 61.7095 106.438 62.2597 106.584 62.697C106.777 63.2805 106.823 63.7062 106.755 64.2898C106.697 64.7821 106.508 65.3352 106.257 65.7377C106.034 66.0968 105.568 66.5848 105.221 66.8237C104.801 67.1119 104.365 67.2755 103.928 67.3073C103.514 67.3392 102.972 67.248 102.472 67.0641C101.973 66.8816 101.365 66.4849 100.84 66.0013C100.378 65.5785 99.9554 65.2845 99.899 65.3511C99.8411 65.4177 99.7788 67.3406 99.76 69.6226C99.7282 73.4453 99.7021 73.8087 99.4445 74.2083C99.2911 74.4472 99.0146 74.7861 98.8294 74.9598C98.6441 75.135 98.2475 75.3797 97.9494 75.5028C97.6252 75.6375 96.9825 75.7272 96.3573 75.7258C95.7798 75.7243 95.0561 75.6433 94.7493 75.5448C94.441 75.4478 93.959 75.1712 93.6782 74.9323C93.3975 74.6934 93.0631 74.3024 92.9357 74.0635C92.7433 73.7044 92.6897 72.9298 92.6304 69.6226C92.5913 67.4188 92.5088 65.5785 92.4494 65.5321C92.3901 65.4858 91.9993 65.7189 91.581 66.0491C91.1627 66.3792 90.5606 66.7687 90.2422 66.9135C89.9238 67.0597 89.3376 67.1814 88.9396 67.1843C88.4692 67.1872 87.9902 67.0742 87.569 66.8614C87.1666 66.6586 86.7281 66.2605 86.4111 65.8145C85.9291 65.1354 85.9002 65.0311 85.9002 63.9321C85.9002 62.8954 85.9479 62.6912 86.3344 62.0541C86.5891 61.6342 87.3649 60.8262 88.2116 60.0994C89.0062 59.4174 89.7878 58.7499 89.9484 58.6152C90.1105 58.4805 90.413 58.2199 90.6214 58.036C90.8299 57.8521 91.6433 57.1441 92.4306 56.4606C93.2165 55.7786 94.056 55.088 94.2948 54.9258Z" fill="#010101"/>
<path d="M66.5057 58.4458C67.2221 58.2474 68.0355 58.0563 68.3149 58.0244C68.5942 57.9911 69.3425 57.994 69.9793 58.0288C70.6162 58.065 71.6583 58.2185 72.2951 58.3719C72.9319 58.5269 73.9422 58.8932 74.5385 59.1886C75.1362 59.484 75.9829 60.0139 76.42 60.3658C76.8571 60.7176 77.5316 61.3374 77.9181 61.7428C78.3045 62.1482 78.798 62.7405 79.0151 63.059C79.2322 63.3776 79.6129 64.061 79.8604 64.5794C80.1064 65.0963 80.4451 66.0737 80.6101 66.7513C80.82 67.6143 80.9097 68.4483 80.9083 69.5386C80.9083 70.4653 80.8128 71.4905 80.6724 72.0726C80.5435 72.6098 80.1614 73.6364 79.8213 74.3531C79.4812 75.0699 78.8863 76.0748 78.4984 76.5859C78.112 77.097 77.5027 77.7718 77.1437 78.086C76.7848 78.4016 76.1016 78.9243 75.624 79.2516C75.1464 79.5774 74.2997 80.0277 73.7424 80.2521C73.1852 80.478 72.2575 80.7575 71.68 80.8733C71.1025 80.9906 70.1096 81.0862 69.4728 81.0862C68.8359 81.0862 67.843 80.9848 67.2656 80.8603C66.6881 80.7372 65.6301 80.352 64.9136 80.0045C64.1972 79.6585 63.1869 79.0547 62.6702 78.6623C62.1535 78.2699 61.4443 77.6284 61.0941 77.2375C60.7452 76.8451 60.1909 76.1023 59.8624 75.5839C59.5338 75.0655 59.1864 74.4791 59.0909 74.2807C58.994 74.0809 58.7899 73.5929 58.6379 73.1948C58.4859 72.7966 58.279 71.9495 58.1776 71.3124C58.0648 70.6014 58.0257 69.5676 58.0763 68.6337C58.127 67.691 58.2775 66.7281 58.4729 66.0997C58.6451 65.5423 59.0909 64.5403 59.4629 63.8742C59.8812 63.1213 60.5224 62.2699 61.1505 61.6299C61.7092 61.0623 62.4575 60.3933 62.815 60.1443C63.1739 59.8938 63.857 59.4927 64.3347 59.2494C64.8123 59.0076 65.7893 58.6456 66.5057 58.4458Z" fill="#010101"/>
<path d="M138.258 59.5651C138.477 59.4565 138.901 59.3044 139.199 59.2277C139.497 59.151 140.132 59.122 140.61 59.1611C141.088 59.2002 141.739 59.3493 142.057 59.4927C142.376 59.636 142.848 59.9922 143.107 60.2833C143.366 60.5757 143.642 60.9768 143.722 61.1767C143.801 61.375 143.868 62.3365 143.869 63.3124C143.871 64.2883 143.796 65.3135 143.704 65.5929C143.612 65.871 143.383 66.3111 143.195 66.5703C143.007 66.8295 142.544 67.2132 142.166 67.4246C141.533 67.7779 141.374 67.804 140.176 67.7504C139.222 67.7084 138.718 67.6114 138.294 67.3899C137.976 67.2234 137.52 66.8107 137.281 66.4733C136.856 65.871 136.845 65.8203 136.801 63.8076C136.775 62.6796 136.79 61.5444 136.837 61.2853C136.882 61.0261 137.131 60.5786 137.39 60.2891C137.649 60.0009 138.04 59.6751 138.258 59.5651Z" fill="#010101"/>
<path d="M137.969 80.4418C138.228 80.2463 138.7 80.0248 139.018 79.9495C139.336 79.8742 139.841 79.8062 140.14 79.7975C140.438 79.7902 141.024 79.8583 141.442 79.951C142.034 80.0813 142.35 80.2652 142.868 80.7835C143.273 81.1875 143.599 81.6755 143.7 82.0273C143.791 82.3459 143.864 83.3884 143.862 84.3441C143.861 85.7269 143.806 86.2004 143.592 86.6608C143.445 86.9794 143.137 87.4152 142.908 87.631C142.678 87.8453 142.247 88.1218 141.949 88.2463C141.651 88.3694 140.999 88.4693 140.501 88.4679C140.004 88.465 139.336 88.4013 139.018 88.3245C138.7 88.2478 138.229 88.0364 137.971 87.8568C137.715 87.6773 137.325 87.2038 137.103 86.8056C136.718 86.1106 136.702 86.0005 136.702 84.0443C136.702 82.065 136.714 81.9897 137.1 81.4018C137.319 81.0688 137.71 80.6373 137.969 80.4418Z" fill="#010101"/>
<path d="M46.1053 88.7604C46.2529 88.6402 46.6046 88.4635 46.8869 88.368C47.2834 88.2319 53.8718 88.2 104.159 88.2536L104.693 88.6156C104.986 88.8139 105.405 89.2324 105.623 89.5452C106.004 90.091 106.018 90.1823 106.018 91.9575C106.018 93.7732 106.011 93.8138 105.584 94.432C105.292 94.8534 104.889 95.1879 103.558 95.8467L75.624 95.8496C58.3687 95.8525 47.4962 95.8004 47.1836 95.7164C46.9042 95.6396 46.4483 95.4282 46.1704 95.2443C45.8911 95.0605 45.5336 94.6507 45.3744 94.3336C45.1312 93.8485 45.0849 93.4662 45.0849 91.9459C45.0849 90.2416 45.1066 90.1026 45.4612 89.5567C45.6682 89.2382 45.9591 88.8805 46.1053 88.7604Z" fill="#010101"/>
<path d="M137.841 99.998C138.189 99.7186 138.71 99.4825 139.216 99.3754C139.663 99.2813 140.292 99.2378 140.61 99.2784C140.928 99.3204 141.434 99.413 141.732 99.4869C142.04 99.5622 142.56 99.8851 142.934 100.235C143.328 100.602 143.649 101.055 143.729 101.358C143.804 101.636 143.864 102.678 143.864 103.674C143.862 105.258 143.822 105.564 143.539 106.126C143.361 106.479 142.955 106.984 142.636 107.247C142.318 107.51 141.781 107.791 141.442 107.872C141.104 107.952 140.535 108.018 140.176 108.018C139.817 108.018 139.218 107.937 138.843 107.837C138.39 107.717 137.966 107.459 137.576 107.07C137.228 106.721 136.913 106.224 136.798 105.839C136.663 105.395 136.618 104.611 136.656 103.312C136.699 101.763 136.759 101.343 136.995 100.939C137.152 100.668 137.533 100.244 137.841 99.998Z" fill="#010101"/>
<path d="M45.3744 104.49C45.6971 103.967 45.9953 103.696 46.5323 103.441L47.2559 103.097L104.329 103.168L104.943 103.602C105.28 103.841 105.693 104.22 105.861 104.445C106.12 104.795 106.17 105.104 106.215 106.617C106.26 108.111 106.225 108.48 105.991 109.032C105.837 109.39 105.489 109.856 105.215 110.067C104.94 110.279 104.455 110.526 104.137 110.617C103.71 110.739 96.1778 110.771 47.1112 110.697L46.4657 110.335C46.0532 110.103 45.6624 109.717 45.3802 109.261C44.9561 108.574 44.9402 108.486 44.9402 106.871C44.9402 105.261 44.9576 105.167 45.3744 104.49Z" fill="#010101"/>
<path d="M67.3843 66.1762C67.6969 65.9793 68.1804 65.7389 68.4597 65.6405C68.739 65.5406 69.1617 65.4566 69.4005 65.4508C69.6393 65.4465 70.2588 65.5681 70.7755 65.723C71.5556 65.9561 71.8407 66.1357 72.4443 66.7757C73.042 67.4113 73.2186 67.727 73.4429 68.561C73.6745 69.4168 73.6904 69.6875 73.5515 70.2986C73.4603 70.6968 73.236 71.2513 73.0507 71.5293C72.8669 71.8088 72.3936 72.2779 71.9985 72.5748C71.5961 72.8774 70.9651 73.1873 70.5584 73.2828C70.143 73.3798 69.4801 73.4117 69.0025 73.3596C68.5451 73.3089 67.9256 73.1453 67.6275 72.9976C67.3293 72.8499 66.8575 72.4691 66.5781 72.1505C66.2988 71.8334 65.9254 71.205 65.7459 70.7547C65.5664 70.3044 65.4188 69.757 65.4174 69.5384C65.4159 69.3198 65.5303 68.7884 65.6707 68.3583C65.8111 67.9283 66.1266 67.3418 66.3712 67.0551C66.6158 66.7684 67.0717 66.3731 67.3843 66.1762Z" fill="#FBFCFC"/>
</svg>
