<svg width="24" height="24" viewBox="0 0 24 24" fill="none" xmlns="http://www.w3.org/2000/svg">
<path d="M12.4919 0.77168C13.7196 0.75293 14.9384 0.76268 16.1564 0.75293C16.1969 2.27618 16.8149 3.64718 17.7981 4.66268L17.7966 4.66118C18.8549 5.61443 20.2319 6.23243 21.7499 6.33743L21.7709 6.33893V10.1159C20.3369 10.0799 18.9884 9.74918 17.7726 9.18068L17.8341 9.20618C17.2461 8.92343 16.7489 8.63318 16.2764 8.30918L16.3154 8.33468C16.3064 11.0714 16.3244 13.8082 16.2966 16.5352C16.2194 17.9249 15.7574 19.1924 15.0164 20.2507L15.0314 20.2274C13.7924 22.0019 11.7854 23.1667 9.50313 23.2357H9.49263C9.40038 23.2402 9.29163 23.2424 9.18213 23.2424C7.88463 23.2424 6.67188 22.8809 5.63838 22.2532L5.66838 22.2704C3.78738 21.1387 2.48988 19.2022 2.24988 16.9499L2.24688 16.9192C2.22813 16.4504 2.21913 15.9817 2.23788 15.5227C2.60538 11.9384 5.60838 9.16568 9.25863 9.16568C9.66888 9.16568 10.0709 9.20093 10.4616 9.26768L10.4196 9.26168C10.4384 10.6484 10.3821 12.0359 10.3821 13.4227C10.0649 13.3079 9.69888 13.2412 9.31713 13.2412C7.91613 13.2412 6.72438 14.1367 6.28338 15.3869L6.27663 15.4094C6.17688 15.7297 6.11913 16.0979 6.11913 16.4789C6.11913 16.6334 6.12888 16.7864 6.14688 16.9364L6.14538 16.9184C6.39438 18.4529 7.70988 19.6109 9.29613 19.6109C9.34188 19.6109 9.38688 19.6102 9.43188 19.6079H9.42513C10.5224 19.5749 11.4749 18.9847 12.0134 18.1124L12.0209 18.0989C12.2211 17.8199 12.3584 17.4824 12.4041 17.1157L12.4049 17.1052C12.4986 15.4274 12.4611 13.7594 12.4701 12.0817C12.4791 8.30468 12.4611 4.53668 12.4889 0.76943L12.4919 0.77168Z" fill="#315288"/>
</svg>
