<svg width="800" height="800" viewBox="0 0 800 800" fill="none" xmlns="http://www.w3.org/2000/svg">
<g clip-path="url(#clip0_92_2)">
<path d="M200.234 349.707C144.787 349.707 99.9609 394.533 99.9609 449.824C99.9609 505.115 144.787 549.941 200.078 549.941C255.369 549.941 300.195 505.115 300.195 449.824C300.351 394.533 255.525 349.707 200.234 349.707ZM200.234 521.515C160.718 521.515 128.544 489.496 128.544 449.824C128.544 410.152 160.562 378.133 200.234 378.133C239.906 378.133 271.769 410.308 271.769 449.824C271.769 489.34 239.75 521.515 200.234 521.515Z" fill="#325289"/>
<path d="M200.547 499.492C228.064 499.492 250.371 477.185 250.371 449.668C250.371 422.151 228.064 399.844 200.547 399.844C173.029 399.844 150.722 422.151 150.722 449.668C150.722 477.185 173.029 499.492 200.547 499.492Z" fill="#325289"/>
<path d="M600.078 349.707C544.787 349.707 499.961 394.533 499.961 449.824C499.961 505.115 544.787 549.941 600.078 549.941C655.369 549.941 700.195 505.115 700.195 449.824C700.195 394.533 655.369 349.707 600.078 349.707ZM600.078 521.515C560.562 521.515 528.387 489.496 528.387 449.824C528.387 410.152 560.406 378.133 600.078 378.133C639.75 378.133 671.613 410.308 671.613 449.824C671.613 489.34 639.594 521.515 600.078 521.515Z" fill="#325289"/>
<path d="M600.39 499.492C627.908 499.492 650.215 477.185 650.215 449.668C650.215 422.151 627.908 399.844 600.39 399.844C572.873 399.844 550.566 422.151 550.566 449.668C550.566 477.185 572.873 499.492 600.39 499.492Z" fill="#325289"/>
<path d="M740.961 308.005L799.844 249.59H680.515C613.667 195.236 502.616 149.941 399.688 149.941C296.603 149.941 186.49 195.236 119.641 249.59H0L58.8832 308.005C22.4912 344.241 0 394.377 0 449.824C0 560.406 89.6525 650.059 200.234 650.059C250.996 650.059 297.384 631.16 332.683 599.922L400.469 649.746L467.474 601.015L466.693 599.141C502.148 630.691 548.692 649.902 599.922 649.902C710.504 649.902 800.156 560.25 800.156 449.668C800 394.377 777.353 344.241 740.961 308.005ZM574.775 251.152C479.969 263.022 405.623 341.117 400 437.798C394.221 340.961 319.719 262.71 224.6 251.152C272.394 216.79 333.307 199.922 399.688 199.922C466.068 199.922 526.982 216.79 574.775 251.152ZM200.234 600.078C117.142 600.078 49.9805 532.761 49.9805 449.824C49.9805 366.888 117.298 299.57 200.234 299.57C283.171 299.57 350.488 366.888 350.488 449.824C350.332 532.761 283.171 600.078 200.234 600.078ZM600.078 600.078C517.142 600.078 449.824 532.761 449.824 449.824C449.824 366.888 517.142 299.57 600.078 299.57C683.014 299.57 750.332 366.888 750.332 449.824C750.176 532.761 683.014 600.078 600.078 600.078Z" fill="#325289"/>
</g>
<defs>
<clipPath id="clip0_92_2">
<rect width="800" height="800" fill="white"/>
</clipPath>
</defs>
</svg>
